<svg xmlns="http://www.w3.org/2000/svg" xmlns:xlink="http://www.w3.org/1999/xlink" width="1156.187" height="939.083" viewBox="0 0 1156.187 939.083">
  <defs>
    <linearGradient id="linear-gradient" x1="35.59" y1="0.5" x2="36.59" y2="0.5" gradientUnits="objectBoundingBox">
      <stop offset="0" stop-color="#67b5eb"/>
      <stop offset="0.997" stop-color="#4d88ec"/>
    </linearGradient>
    <linearGradient id="linear-gradient-2" x1="34.341" y1="0.5" x2="35.341" y2="0.5" xlink:href="#linear-gradient"/>
    <clipPath id="clip-path">
      <path id="Path_518" data-name="Path 518" d="M215.388,352.141l-13.051-3.53a27.137,27.137,0,0,0,7.96.928l13.051,3.53A27.138,27.138,0,0,1,215.388,352.141Z" transform="translate(-202.337 -348.611)" fill="none"/>
    </clipPath>
    <clipPath id="clip-path-2">
      <path id="Path_527" data-name="Path 527" d="M325.336,408.36l-13.051-3.528a37.232,37.232,0,0,0,10.908,1.263l13.051,3.53A37.175,37.175,0,0,1,325.336,408.36Z" transform="translate(-312.285 -404.832)" fill="none"/>
    </clipPath>
    <radialGradient id="radial-gradient" cx="0.355" cy="0.697" r="0.558" gradientTransform="translate(0.091) scale(0.818 1)" gradientUnits="objectBoundingBox">
      <stop offset="0" stop-color="#f0a37d"/>
      <stop offset="1" stop-color="#f5b58f"/>
    </radialGradient>
    <radialGradient id="radial-gradient-2" cx="0.728" cy="0.397" r="0.484" gradientTransform="translate(0.024) scale(0.952 1)" gradientUnits="objectBoundingBox">
      <stop offset="0.06" stop-color="#032f4a"/>
      <stop offset="1" stop-color="#033b5e"/>
    </radialGradient>
    <radialGradient id="radial-gradient-3" cx="0.643" cy="0.5" r="0.376" gradientTransform="matrix(-1.734, 0.507, 1.014, 0.857, -256.459, 46.973)" xlink:href="#radial-gradient-2"/>
  </defs>
  <g id="Group_436" data-name="Group 436" transform="translate(-501.788 -194.937)">
    <path id="Path_481" data-name="Path 481" d="M93.011,377.247c22.025-33.97,51.559-63.088,82.569-89.419,60.2-51.118,128.356-94.208,203.7-117.905s158.361-27.071,232.868-.872c67.459,23.722,125.461,70.286,193.926,90.93,73.654,22.211,152.564,12.571,229.189,5.684,33.433-3,69.952-4.668,97.453,14.582,25.464,17.823,36.994,49.486,44.05,79.757a478.382,478.382,0,0,1-25.4,293.307q-1.483,3.473-3.007,6.927c-46.739,105.207-142.808,211.684-253.885,247.8C760.791,951.5,612.928,943.672,479.529,903.4q-7.649-2.308-15.248-4.766c-115.4-37.319-224.724-100.867-307.1-190.727C82.283,626.21,24.272,514.139,77.683,404.3A253.833,253.833,0,0,1,93.011,377.247Z" transform="translate(468.991 192.647)" fill="#e8f7fd"/>
    <path id="Path_482" data-name="Path 482" d="M942.009,434.392c0-7.472-186.276-13.531-416.055-13.531S109.9,426.921,109.9,434.392s186.273,13.531,416.055,13.531S942.009,441.867,942.009,434.392Z" transform="translate(565.597 685.274)" fill="#d2d5dd"/>
    <g id="Group_342" data-name="Group 342" transform="translate(1100.511 194.937)">
      <g id="Group_338" data-name="Group 338">
        <path id="Path_483" data-name="Path 483" d="M261.327,446.187a1.734,1.734,0,0,1-.489-.076c-1.748-.534-3.256-.994,4.574-57.734,3.589-26,7.593-52.205,8.048-55.165l-31.137-129.6a45.294,45.294,0,0,1,33.461-54.622L711.015,44.428A45.334,45.334,0,0,1,765.64,77.89l31.2,129.869a45.293,45.293,0,0,1-33.464,54.622L353.855,360.766c-55.444,47.668-87.587,77.353-90.523,83.611C263.108,444.851,262.481,446.187,261.327,446.187ZM711.346,45.8l.333,1.372L276.448,151.733A42.519,42.519,0,0,0,245.07,202.95l31.265,130.14-.042.277c-5.6,36.418-13.7,93.446-14.093,107.6,9.1-12.038,53.242-50.9,90.072-82.563l.26-.223.33-.079,409.857-98.464A42.47,42.47,0,0,0,794.1,208.42l-31.2-129.872a42.516,42.516,0,0,0-51.214-31.375Z" transform="translate(-241.054 -43.167)" fill="#d2d5dd"/>
      </g>
      <g id="Group_339" data-name="Group 339" transform="translate(65.932 42.176)">
        <rect id="Rectangle_210" data-name="Rectangle 210" width="46.564" height="28.593" transform="matrix(-0.972, 0.234, -0.234, -0.972, 406.4, 27.802)" fill="#d2d5dd"/>
        <rect id="Rectangle_211" data-name="Rectangle 211" width="333.726" height="28.593" transform="translate(331.173 45.875) rotate(166.491)" fill="#d2d5dd"/>
      </g>
      <g id="Group_340" data-name="Group 340" transform="translate(80.008 100.768)">
        <rect id="Rectangle_212" data-name="Rectangle 212" width="190.145" height="28.593" transform="translate(406.4 27.802) rotate(166.491)" fill="#d2d5dd"/>
        <rect id="Rectangle_213" data-name="Rectangle 213" width="190.145" height="28.593" transform="translate(191.564 79.414) rotate(166.491)" fill="#d2d5dd"/>
      </g>
      <g id="Group_341" data-name="Group 341" transform="translate(94.084 159.359)">
        <rect id="Rectangle_214" data-name="Rectangle 214" width="132.713" height="28.594" transform="translate(406.4 27.803) rotate(166.491)" fill="#d2d5dd"/>
        <rect id="Rectangle_215" data-name="Rectangle 215" width="247.578" height="28.593" transform="translate(247.408 65.999) rotate(166.491)" fill="#d2d5dd"/>
      </g>
    </g>
    <g id="Group_347" data-name="Group 347" transform="translate(582.749 385.996)">
      <g id="Group_343" data-name="Group 343">
        <path id="Path_484" data-name="Path 484" d="M613.836,568.862c-1.152,0-1.779-1.336-2-1.81-2.937-6.257-35.076-35.943-90.523-83.611L111.787,385.056a45.3,45.3,0,0,1-33.464-54.622l31.2-129.869a45.292,45.292,0,0,1,54.62-33.464L599.379,271.663a45.292,45.292,0,0,1,33.464,54.62l-31.14,129.6c.458,2.959,4.464,29.166,8.05,55.165,7.83,56.74,6.32,57.2,4.574,57.731A1.653,1.653,0,0,1,613.836,568.862ZM153.488,168.656a42.518,42.518,0,0,0-41.218,32.566L81.07,331.091a42.468,42.468,0,0,0,31.375,51.217l410.19,98.546.26.223c36.83,31.66,80.971,70.526,90.072,82.563-.4-14.155-8.491-71.181-14.093-107.6l-.042-.277.062-.271,31.2-129.869a42.47,42.47,0,0,0-31.377-51.217L163.487,169.848A42.838,42.838,0,0,0,153.488,168.656Z" transform="translate(-77.054 -165.83)" fill="#d2d5dd"/>
      </g>
      <g id="Group_344" data-name="Group 344" transform="translate(84.726 42.187)">
        <rect id="Rectangle_216" data-name="Rectangle 216" width="46.564" height="28.594" transform="matrix(0.972, 0.234, -0.234, 0.972, 6.679, 0)" fill="#d2d5dd"/>
        <rect id="Rectangle_217" data-name="Rectangle 217" width="333.726" height="28.593" transform="translate(81.906 18.073) rotate(13.509)" fill="#d2d5dd"/>
      </g>
      <g id="Group_345" data-name="Group 345" transform="translate(70.65 100.779)">
        <rect id="Rectangle_218" data-name="Rectangle 218" width="190.145" height="28.593" transform="translate(6.679 0) rotate(13.509)" fill="#d2d5dd"/>
        <rect id="Rectangle_219" data-name="Rectangle 219" width="190.145" height="28.593" transform="translate(221.515 51.612) rotate(13.509)" fill="#d2d5dd"/>
      </g>
      <g id="Group_346" data-name="Group 346" transform="translate(56.574 159.37)">
        <rect id="Rectangle_220" data-name="Rectangle 220" width="132.713" height="28.593" transform="translate(6.679 0) rotate(13.509)" fill="#d2d5dd"/>
        <rect id="Rectangle_221" data-name="Rectangle 221" width="247.578" height="28.593" transform="translate(165.671 38.196) rotate(13.509)" fill="#d2d5dd"/>
      </g>
    </g>
    <path id="Path_485" data-name="Path 485" d="M408.694,629.813c2.988,6.342,6.111,12.673,9.228,19.007L405.373,646.2c-1.96-4.227-3.914-8.454-5.8-12.735-13.1-29.61-24.872-59.753-35.263-90.179-.141-.079-.26-.214-.412-.285a9.411,9.411,0,0,0-3.027-.822,4.83,4.83,0,0,0-1.336.062,16.893,16.893,0,0,1-1.793-.082c-1.251-.1-2.482-.246-3.719-.3-4.9-.452-9.652-.887-14.472-1.593a120.5,120.5,0,0,1-30.324-8.169,94.49,94.49,0,0,1-32.106-22.265A85.307,85.307,0,0,1,263.98,491.67c-3.541-6.749-6.173-14.065-6.585-21.116A127.191,127.191,0,0,0,272.129,480.9c4.538,2.739,8.889,4.919,13.2,7,4.315,2.05,8.6,3.984,12.938,5.842l13.277,5.622c9.177,3.956,19.131,8.378,29.426,15.056a108.565,108.565,0,0,1,15.265,11.939c1.223,1.189,2.443,2.355,3.628,3.648l0-.028a.1.1,0,0,1-.062-.1,1107.627,1107.627,0,0,1-32.058-120.415v0a44.844,44.844,0,0,0-11.62-7.3c-4.329-1.957-8.406-3.185-13.164-5.145a73.646,73.646,0,0,1-15.838-8.553,70.118,70.118,0,0,1-8.649-7.452,83.217,83.217,0,0,1-7.618-8.929,100.7,100.7,0,0,1-17.626-40.368,94.784,94.784,0,0,1-1.756-19.3,86.743,86.743,0,0,1,.6-9.163,59.417,59.417,0,0,1,1.686-8.977,169.87,169.87,0,0,1,11.021,17.2c3.182,5.571,6.122,10.883,8.886,15.852a239.505,239.505,0,0,0,15.951,25.592,99.252,99.252,0,0,0,8.138,9.773c3.061,3.2,7.13,6.811,11.665,11.213a87.691,87.691,0,0,1,13.687,16.327c.508.822.943,1.7,1.42,2.553-.014-.079-.034-.161-.045-.237-1.937-10.278-3.679-20.483-5.294-30.711-.248-1.609-.5-3.3-.745-4.978-.3-1.855-.61-3.713-.85-5.546-1.522-10.51-2.855-20.873-4.055-31.332-1.861-2.985-3.747-5.814-5.633-8.6-2.8-4.058-5.571-8.07-8.3-12.111-5.481-8.062-10.7-16.256-15.714-24.736q-1.885-3.177-3.71-6.438c-.6-1.093-1.231-2.174-1.83-3.292s-1.2-2.163-1.9-3.592a75.525,75.525,0,0,1-6.009-16.259,69.824,69.824,0,0,1-1.988-15.7,51.382,51.382,0,0,1,1.872-14.9,105.273,105.273,0,0,1,9.623,13.6c2.716,4.405,5.077,8.643,7.3,12.594,2.2,3.967,4.238,7.675,6.24,11.174l1.689,3.021,1.8,3.3c1.2,2.219,2.383,4.467,3.524,6.757a201.656,201.656,0,0,1,9.92,23.036l0-.065c-1.8-22.844-2.779-45.355-2.841-67.739.065-.048,0-.073,0-.073l0-.068c-.172.576-.282,1.158-.477,1.737a115.1,115.1,0,0,1-13.082-25.453,154.464,154.464,0,0,1-7.088-25.182,138.383,138.383,0,0,1-2.629-24.984c.028-8.288.573-16.553,3.309-24.719a116.006,116.006,0,0,1,13.054,25.447,156.457,156.457,0,0,1,7.121,25.185,137.2,137.2,0,0,1,2.654,24.984,83.7,83.7,0,0,1-2.324,21.02l0,.209,0,.073q.991,39.59,5.6,80c.014.113.028.226.042.336q1.055,3.867,1.8,7.816c.141-4.137.39-8.158.706-12.108a249.1,249.1,0,0,1,3.973-26.981,218.807,218.807,0,0,1,6.619-25.411c2.835-8.248,5.913-16.46,10.962-24.225a112.24,112.24,0,0,1,5.769,32.577,125.436,125.436,0,0,1-2.4,29.477A97.867,97.867,0,0,1,332.4,305.36c-3.925,7.285-8.641,13.924-15.308,18.707l.014.088c.576,4.456,1.279,8.962,1.982,13.472l0,.073c.4,2.649.8,5.3,1.259,7.974a.1.1,0,0,0,.059.1c.8,5.224,1.731,10.5,2.663,15.7,1.615,8.793,3.3,17.391,5.114,26.185l-.011.223.011.054c.11-.613.181-1.265.294-1.872.6-3.033,1.242-6.012,2-8.872.689-2.92,1.5-5.7,2.361-8.437a208.52,208.52,0,0,1,12.215-30.313,229.489,229.489,0,0,1,15.443-26.775c1.4-2.149,2.855-4.272,4.453-6.314,1.479-2.121,3.078-4.182,4.747-6.226,1.632-2.064,3.315-4.128,5.2-6.108a50.125,50.125,0,0,1,5.9-5.93,95.463,95.463,0,0,1,1.776,11.024c.325,3.549.455,7.02.528,10.482-.051,3.369-.167,6.729-.415,10.016-.277,3.256-.686,6.438-1.172,9.584a119.757,119.757,0,0,1-10.837,33.713,104.393,104.393,0,0,1-18.315,26.343,85.221,85.221,0,0,1-11.809,10.129,69.261,69.261,0,0,1-9.019,5.156l.023.107,0,.073a1077.487,1077.487,0,0,0,34.74,121.774l.034.1c.229-2.525.446-5.063.757-7.511.46-3.53.971-7.009,1.6-10.377.542-3.431,1.22-6.737,1.94-10a361.791,361.791,0,0,1,10.293-37.166c3.922-11.854,8.2-23.3,12.992-34.627,1.158-2.855,2.366-5.7,3.724-8.48,1.22-2.852,2.553-5.67,3.965-8.485,1.347-2.841,2.745-5.693,4.34-8.5a71.285,71.285,0,0,1,4.975-8.488,122.54,122.54,0,0,1,2.937,12.32c.689,4.024,1.183,8,1.621,11.987.288,3.9.511,7.8.6,11.662.04,3.815-.056,7.587-.232,11.326a160.436,160.436,0,0,1-7.915,41.339,140.1,140.1,0,0,1-16.68,34.368,111.287,111.287,0,0,1-11.433,14.17,82.746,82.746,0,0,1-9.321,8.254l.011.037Q387.408,584.3,408.694,629.813Z" transform="translate(823.787 138.934)" fill="#ffd143"/>
    <g id="Group_379" data-name="Group 379" transform="translate(992.973 797.921)">
      <g id="Group_349" data-name="Group 349" transform="translate(37.735 253.425)">
        <g id="Group_348" data-name="Group 348">
          <path id="Path_486" data-name="Path 486" d="M254.528,422.176c-.232.322-.455.717-.686,1.039-.661,1-1.389,2.01-2.05,3.01-2.33,3.484-4.628,6.93-7,10.383-1.33,1.931-2.691,3.9-4.061,5.8l-4.913,6.723-.124.172a23.215,23.215,0,0,1,2.355,2.064c.347.158.681.33,1,.517l4.679-7.5c3.891-6.415,7.539-13.009,11.278-19.47.37-.6.666-1.18,1.036-1.776l.579-1.056,10.948-20.63Z" transform="translate(-235.694 -401.458)" fill="#e0eef8"/>
        </g>
      </g>
      <g id="Group_351" data-name="Group 351">
        <g id="Group_350" data-name="Group 350">
          <path id="Path_487" data-name="Path 487" d="M392.36,312.636l-.011.017c-13.288,9.141-25.589,18.095-37.011,26.859l-1.643,1.285q-22.034,17.061-39.645,33.182c-.525.463-1.022.926-1.53,1.406a415.462,415.462,0,0,0-43.528,45.953c-.446.559-.906,1.1-1.321,1.66-15.344,19.34-26.049,37.386-33.162,54.055-.328.737-.641,1.488-.94,2.222-27.91,67.713,3.078,112.238,18.546,128.952,1.172.689,2.279,1.344,3.27,1.847a28.324,28.324,0,0,1,7.088,5,10.782,10.782,0,0,1,2.533,1.6c14.932,2.875,28.254,3.14,40.162,1.251l10.722-2.375c31.321-9.1,51.519-34.712,64.263-67.482.347-.856.666-1.708.983-2.589a274.219,274.219,0,0,0,13.147-51.465c.136-.793.271-1.587.39-2.395a484.259,484.259,0,0,0,5.34-59.118c.023-.754.059-1.525.082-2.281.579-19.588.195-38.386-.621-54.987-.028-.825-.068-1.629-.121-2.423-1.531-29.593-4.357-51.889-5.295-58.821-.212-1.488-.325-2.273-.325-2.273C393.267,312.038,392.815,312.323,392.36,312.636Z" transform="translate(-222.331 -311.71)" fill="#82b4f3"/>
        </g>
      </g>
      <g id="Group_354" data-name="Group 354" transform="translate(37.763)">
        <g id="Group_353" data-name="Group 353">
          <g id="Group_352" data-name="Group 352">
            <path id="Path_488" data-name="Path 488" d="M367.971,312.636l-.011.017c-1.649,5.122-8.4,25.512-20.543,57.164-.305.839-.652,1.691-.971,2.544-6.342,16.519-14.107,35.921-23.3,57.748-.325.768-.652,1.533-.991,2.315-7.559,17.866-16.061,37.287-25.569,58-.319.692-.635,1.387-.966,2.1-9.143,19.9-19.184,40.958-30.149,62.921-.344.695-.678,1.375-1.025,2.073Q251,584.422,235.7,613.006c.562.426,1.1.87,1.612,1.327q6.4-11.927,12.47-23.606c.488-.926.974-1.85,1.443-2.787q14.6-28.095,27.308-54.425c.455-.952.9-1.886,1.355-2.81,11.349-23.561,21.59-45.84,30.736-66.533.426-.952.853-1.9,1.265-2.86,9.3-21.1,17.428-40.49,24.439-57.83.505-1.2.969-2.386,1.446-3.586,18.888-46.84,29.313-78.017,31.886-85.912-.212-1.488-.325-2.273-.325-2.273C368.877,312.038,368.425,312.323,367.971,312.636Z" transform="translate(-235.704 -311.71)" fill="#fff"/>
          </g>
        </g>
      </g>
      <g id="Group_357" data-name="Group 357" transform="translate(50.741 233.763)">
        <g id="Group_356" data-name="Group 356">
          <g id="Group_355" data-name="Group 355">
            <path id="Path_489" data-name="Path 489" d="M240.3,437.989l.771,1.9c.333-.144,106.308-42.808,106.308-42.808.347-.856.666-1.708.983-2.589L242.847,436.961Z" transform="translate(-240.3 -394.495)" fill="#fff"/>
          </g>
        </g>
      </g>
      <g id="Group_360" data-name="Group 360" transform="translate(79.45 179.903)">
        <g id="Group_359" data-name="Group 359">
          <g id="Group_358" data-name="Group 358">
            <path id="Path_490" data-name="Path 490" d="M250.467,415.58l.81,1.886c.336-.144,91.69-39.651,91.69-39.651.136-.793.271-1.587.39-2.395L252.983,414.5Z" transform="translate(-250.467 -375.421)" fill="#fff"/>
          </g>
        </g>
      </g>
      <g id="Group_363" data-name="Group 363" transform="translate(111.53 118.504)">
        <g id="Group_362" data-name="Group 362">
          <g id="Group_361" data-name="Group 361">
            <path id="Path_491" data-name="Path 491" d="M261.828,385.935l.9,1.821c.263-.121,65.254-31.8,65.254-31.8.023-.754.059-1.525.082-2.281l-63.8,31.081Z" transform="translate(-261.828 -353.677)" fill="#fff"/>
          </g>
        </g>
      </g>
      <g id="Group_366" data-name="Group 366" transform="translate(137.046 61.094)">
        <g id="Group_365" data-name="Group 365">
          <g id="Group_364" data-name="Group 364">
            <path id="Path_492" data-name="Path 492" d="M270.864,362.487l1.2,1.649c.15-.113,38.9-28.367,38.9-28.367q-.042-1.233-.121-2.423l-37.18,27.091Z" transform="translate(-270.864 -333.346)" fill="#fff"/>
          </g>
        </g>
      </g>
      <g id="Group_369" data-name="Group 369" transform="translate(90.188 62.269)">
        <g id="Group_368" data-name="Group 368">
          <g id="Group_367" data-name="Group 367">
            <path id="Path_493" data-name="Path 493" d="M288.293,392.208l.3.5,1.737-1.045-1.048-1.768L255.8,333.762c-.525.463-1.022.926-1.53,1.406Z" transform="translate(-254.27 -333.762)" fill="#fff"/>
          </g>
        </g>
      </g>
      <g id="Group_372" data-name="Group 372" transform="translate(131.364 27.803)">
        <g id="Group_371" data-name="Group 371">
          <g id="Group_370" data-name="Group 370">
            <path id="Path_494" data-name="Path 494" d="M285.992,354.4l.257.457,1.8-.994-1.084-2.008-16.468-30.3c-.545.424-1.1.861-1.643,1.285Z" transform="translate(-268.852 -321.556)" fill="#fff"/>
          </g>
        </g>
      </g>
      <g id="Group_375" data-name="Group 375" transform="translate(45.339 109.629)">
        <g id="Group_374" data-name="Group 374">
          <g id="Group_373" data-name="Group 373">
            <path id="Path_495" data-name="Path 495" d="M290.725,421.715l.393.517,1.618-1.225-1.045-1.387-51.982-69.086c-.446.559-.906,1.1-1.322,1.66Z" transform="translate(-238.387 -350.534)" fill="#fff"/>
          </g>
        </g>
      </g>
      <g id="Group_378" data-name="Group 378" transform="translate(11.237 165.344)">
        <g id="Group_377" data-name="Group 377">
          <g id="Group_376" data-name="Group 376">
            <path id="Path_496" data-name="Path 496" d="M281.576,450.725l.364.52,1.666-1.186-1.005-1.406L227.25,370.265c-.328.737-.641,1.488-.94,2.222Z" transform="translate(-226.31 -370.265)" fill="#fff"/>
          </g>
        </g>
      </g>
    </g>
    <g id="Group_389" data-name="Group 389" transform="translate(1348.079 674.936)">
      <g id="Group_380" data-name="Group 380" transform="translate(40.408 282.937)">
        <path id="Path_497" data-name="Path 497" d="M581.2,380.482a50.844,50.844,0,0,0-15.607-9.465c-49.463-19.955-152.205,77.455-181.222,120.19L362.4,539.3c19.331-9.705,133.794-36.463,160.174-47.71,40.715-17.355,88.894-76.45,61.637-108.048A36.439,36.439,0,0,0,581.2,380.482Z" transform="translate(-362.398 -368.355)" fill="#549ffe"/>
      </g>
      <g id="Group_381" data-name="Group 381" transform="translate(40.408 211.992)">
        <path id="Path_498" data-name="Path 498" d="M538.848,352.756c-.282-.206-.593-.407-.9-.607a44.6,44.6,0,0,0-10.657-4.767c-29.291-9.366-62.825-2.564-84.709,17.2-7.762,7.006-14.056,15.406-19.913,24.01A352.833,352.833,0,0,0,366.385,530.12l-3.987,55c8.093-12.54,63.1-57.827,74-68.083,16.242-15.248,35.87-26.634,54.636-38.874s37.223-25.815,49.751-44.107c12.554-18.3,18.5-42.229,10.637-63.622a38.842,38.842,0,0,0-10.1-15.686A25.689,25.689,0,0,0,538.848,352.756Z" transform="translate(-362.398 -343.231)" fill="#d2d5dd"/>
      </g>
      <g id="Group_382" data-name="Group 382" transform="translate(40.408 450.378)">
        <path id="Path_499" data-name="Path 499" d="M363.657,427.653c-.457,1.206-.878,2.378-1.259,3.507C362.779,430.025,363.2,428.85,363.657,427.653Z" transform="translate(-362.398 -427.653)" fill="#549ffe"/>
      </g>
      <g id="Group_383" data-name="Group 383" transform="translate(41.667 449.268)">
        <path id="Path_500" data-name="Path 500" d="M362.844,428.37c.136-.359.294-.743.435-1.11C363.135,427.63,362.98,428.008,362.844,428.37Z" transform="translate(-362.844 -427.26)" fill="#549ffe"/>
      </g>
      <g id="Group_384" data-name="Group 384" transform="translate(42.102 220.909)">
        <path id="Path_501" data-name="Path 501" d="M454.592,434.62c14.232-18.241,28.816-37,46.561-52.138,13.116-11.171,28.023-20.514,39.08-33.489a25.694,25.694,0,0,0-2.479-2c-.282-.206-.593-.407-.9-.607-12.326,14.565-29.754,24.569-43.822,37.6-17.976,16.643-33.241,36.474-47.919,55.885-21.675,28.641-67.8,97.981-82.114,134.873C378.413,535.3,430.629,465.3,454.592,434.62Z" transform="translate(-362.998 -346.389)" fill="#fff"/>
      </g>
      <g id="Group_385" data-name="Group 385" transform="translate(40.408 295.391)">
        <path id="Path_502" data-name="Path 502" d="M492.267,437.006c-26,20.277-107.745,70.071-129.869,94.254,23.92-26.035,111.744-75.363,140.167-96.761,17.219-12.975,35.285-24.648,53.642-36.048,10.694-6.65,21.178-13.7,29.612-22.6a37.343,37.343,0,0,0-3.027-3.081c-10.36,11.066-24.053,19.057-37.183,27.173A600.846,600.846,0,0,0,492.267,437.006Z" transform="translate(-362.398 -372.766)" fill="#d2d5dd"/>
      </g>
      <g id="Group_386" data-name="Group 386" transform="translate(40.408 372.942)">
        <path id="Path_503" data-name="Path 503" d="M362.4,481.172l5.077-54.444c.675-8.819,1.107-17.651,1.375-26.5C366.659,431.619,363.861,462.965,362.4,481.172Z" transform="translate(-362.398 -400.23)" fill="#e2f0f4"/>
      </g>
      <path id="Path_504" data-name="Path 504" d="M391.905,571.476l-.014.025c-9.527,16.383-19.806,32.405-30.561,48.17l12.249-5.5c7.8-12.311,15.364-24.744,22.421-37.392.121-.039.232-.124.359-.158a7.828,7.828,0,0,1,2.482-.212,3.871,3.871,0,0,1,1.042.229c.333.1.963.116,1.42.181.994.093,1.982.15,2.962.271,3.905.319,7.7.635,11.574.751a98.9,98.9,0,0,0,24.871-2.075,75.217,75.217,0,0,0,28.076-12.492,65.194,65.194,0,0,0,12.648-11.953c3.643-4.62,6.647-9.8,7.87-15.07a100.458,100.458,0,0,1-12.9,5.828c-3.916,1.457-7.613,2.519-11.267,3.51-3.651.966-7.265,1.847-10.914,2.668L443.077,550.7a153.486,153.486,0,0,0-25.052,7.407,85.391,85.391,0,0,0-13.517,6.96c-1.115.734-2.222,1.449-3.321,2.265l0-.02a.071.071,0,0,0,.059-.065,820.9,820.9,0,0,0,40.577-86.689l0,0a35.875,35.875,0,0,1,10.061-3.945c3.648-.892,7.011-1.271,11-2.109a59.256,59.256,0,0,0,13.537-4.323,55.2,55.2,0,0,0,7.751-4.464A64.419,64.419,0,0,0,491.307,460a75.427,75.427,0,0,0,19.009-28.13,69.862,69.862,0,0,0,3.843-14.356,64.524,64.524,0,0,0,.7-7.006,43.9,43.9,0,0,0-.181-7.011A129.381,129.381,0,0,0,503.821,415c-3.213,3.781-6.2,7.4-9.008,10.784a182.978,182.978,0,0,1-15.807,17.188,76.255,76.255,0,0,1-7.641,6.286c-2.812,2.01-6.472,4.185-10.6,6.9a67.8,67.8,0,0,0-12.842,10.493c-.5.551-.96,1.158-1.44,1.734.023-.054.042-.113.065-.169,2.835-7.508,5.509-14.988,8.084-22.5.4-1.186.81-2.426,1.22-3.665.48-1.361.957-2.725,1.378-4.077,2.541-7.737,4.911-15.392,7.192-23.132,1.841-2.008,3.688-3.888,5.523-5.744,2.722-2.691,5.407-5.345,8.067-8.034,5.337-5.354,10.49-10.84,15.508-16.575q1.885-2.143,3.739-4.365c.613-.743,1.245-1.474,1.858-2.239s1.217-1.474,1.951-2.459a56.369,56.369,0,0,0,6.8-11.478,51.586,51.586,0,0,0,3.569-11.6,37.922,37.922,0,0,0,.432-11.515,81.117,81.117,0,0,0-9.3,8.982c-2.694,2.962-5.091,5.845-7.347,8.531-2.236,2.7-4.312,5.23-6.331,7.6l-1.711,2.056-1.841,2.251c-1.223,1.516-2.44,3.055-3.631,4.631a150.159,150.159,0,0,0-10.739,16.073l.008-.051c4.334-17.022,7.977-33.907,10.886-50.816-.048-.045.006-.057.006-.057l.009-.051c.062.457.073.912.152,1.375A86.673,86.673,0,0,0,495.559,323.9a114.309,114.309,0,0,0,8.788-18.078,102.111,102.111,0,0,0,5.255-18.526c1.039-6.272,1.663-12.591.559-19.137a87.413,87.413,0,0,0-13.512,17.473,116.04,116.04,0,0,0-8.81,18.075,101.009,101.009,0,0,0-5.278,18.527,61.825,61.825,0,0,0-.861,16.2l-.031.161-.006.056q-5.837,29.789-14.621,59.714l-.073.249q-1.322,2.778-2.414,5.661c.418-3.146.734-6.221.994-9.245a185.791,185.791,0,0,0,.322-20.935,163.222,163.222,0,0,0-1.954-20.1c-1.175-6.616-2.544-13.243-5.518-19.791a82.88,82.88,0,0,0-8.7,23.844,92.821,92.821,0,0,0-1.881,22.6,73.32,73.32,0,0,0,3.651,20.6c2.152,6.037,5.012,11.693,9.64,16.208l-.023.065c-1.022,3.29-2.152,6.6-3.281,9.914l-.006.056c-.652,1.948-1.3,3.9-2.011,5.856a.078.078,0,0,1-.059.068c-1.3,3.84-2.7,7.7-4.1,11.507-2.394,6.43-4.817,12.7-7.361,19.105l-.02.167-.017.042c-.009-.48.02-.985.008-1.457-.082-2.375-.212-4.713-.435-6.977-.169-2.3-.455-4.512-.779-6.7a156.555,156.555,0,0,0-5.727-24.567,175.243,175.243,0,0,0-8.714-22.324c-.827-1.813-1.7-3.614-2.694-5.374-.892-1.8-1.883-3.578-2.934-5.348-1.019-1.779-2.078-3.569-3.3-5.32a39.628,39.628,0,0,0-3.88-5.278,70.765,70.765,0,0,0-2.807,8.093c-.706,2.64-1.254,5.244-1.754,7.853-.387,2.553-.726,5.108-.952,7.624-.2,2.5-.282,4.961-.3,7.4a89.664,89.664,0,0,0,4.207,26.953A80.493,80.493,0,0,0,425.2,461.2a67.5,67.5,0,0,0,7.986,9.253,56.026,56.026,0,0,0,6.427,5.114.589.589,0,0,1-.031.076l-.006.057a799.316,799.316,0,0,1-42.856,87.352.436.436,0,0,1-.042.071c.144-1.937.3-3.886.37-5.78.085-2.728.13-5.424.068-8.059.014-2.666-.1-5.258-.249-7.822a269.42,269.42,0,0,0-3.337-29.483c-1.57-9.493-3.465-18.721-5.786-27.932-.545-2.313-1.132-4.622-1.844-6.913-.593-2.321-1.282-4.631-2.03-6.949-.695-2.327-1.429-4.673-2.324-7.006a54.133,54.133,0,0,0-2.829-7.09,92.44,92.44,0,0,0-3.88,8.915c-1.053,2.948-1.954,5.89-2.8,8.841-.726,2.911-1.4,5.828-1.963,8.734-.52,2.88-.923,5.743-1.262,8.593a118.788,118.788,0,0,0,.935,32.318,106.085,106.085,0,0,0,8.717,28.229,86.085,86.085,0,0,0,7.175,12.255A65.124,65.124,0,0,0,391.905,571.476Z" transform="translate(-323.938 -268.156)" fill="#ff7e33"/>
      <g id="Group_387" data-name="Group 387" transform="translate(0 187.831)">
        <path id="Path_505" data-name="Path 505" d="M407.559,334.676a44.956,44.956,0,0,0-4.518.251c-16.282,1.612-34.238,11.425-47.682,33.741-25.894,42.974,25.072,210.908,33.137,232.06l21.573-45.953c11.154-27.726,42.269-175.611,33.227-199.52C438.7,343.085,424.383,334.541,407.559,334.676Z" transform="translate(-348.088 -334.674)" fill="#1657ab"/>
      </g>
      <g id="Group_388" data-name="Group 388" transform="translate(44.331 187.832)">
        <path id="Path_506" data-name="Path 506" d="M370.335,376.5c2.1-14.1,5.227-28.006,8.593-41.828a44.929,44.929,0,0,0-4.518.251c-3.117,12.919-6.023,25.885-8.048,39.038-2.979,19.272-3.01,38.231-1.909,57.813,1.652,29.356,2.75,58.742,1.864,88.008,2.194-31.442,3.773-62.927,2.779-81.293C367.974,417.521,367.251,397.207,370.335,376.5Z" transform="translate(-363.787 -334.675)" fill="#e2f0f4"/>
      </g>
    </g>
    <g id="Group_396" data-name="Group 396" transform="translate(588.835 1063.697)">
      <path id="Path_507" data-name="Path 507" d="M100.124,406.1H261.956l-21.412,26.142,21.412,26.142H100.124a20.914,20.914,0,0,1-20.915-20.913V427.011A20.915,20.915,0,0,1,100.124,406.1Z" transform="translate(-79.209 -405.351)" fill="#1657ab"/>
      <path id="Path_508" data-name="Path 508" d="M108.765,406.1h5.475a20.914,20.914,0,0,0-20.913,20.915v10.456a20.913,20.913,0,0,0,20.913,20.913h-5.475A20.914,20.914,0,0,1,87.85,437.468V427.011A20.915,20.915,0,0,1,108.765,406.1Z" transform="translate(-63.45 -405.351)" fill="url(#linear-gradient)"/>
      <path id="Path_509" data-name="Path 509" d="M114.584,406.1h5.478a20.915,20.915,0,0,0-20.915,20.915v10.456a20.914,20.914,0,0,0,20.915,20.913h-5.478a20.914,20.914,0,0,1-20.915-20.913V427.011A20.915,20.915,0,0,1,114.584,406.1Z" transform="translate(-52.838 -405.351)" fill="url(#linear-gradient-2)"/>
      <path id="Path_510" data-name="Path 510" d="M136.521,427.011v10.456a20.917,20.917,0,0,0,20.913,20.913h131.2V406.1h-131.2A20.918,20.918,0,0,0,136.521,427.011Z" transform="translate(25.313 -405.351)" fill="#fff"/>
      <g id="Group_390" data-name="Group 390" transform="translate(161.086)">
        <path id="Path_511" data-name="Path 511" d="M157.917,459.61h131.2a.747.747,0,0,0,0-1.494h-131.2a20.19,20.19,0,0,1-20.167-20.167V427.493a20.19,20.19,0,0,1,20.167-20.167h131.2a.747.747,0,0,0,0-1.494h-131.2a21.685,21.685,0,0,0-21.661,21.661v10.456A21.685,21.685,0,0,0,157.917,459.61Z" transform="translate(-136.256 -405.832)" fill="#1657ab"/>
      </g>
      <g id="Group_391" data-name="Group 391" transform="translate(172.042 9.46)">
        <path id="Path_512" data-name="Path 512" d="M140.881,410.676H282.046a.747.747,0,0,0,0-1.494H140.881a.747.747,0,0,0,0,1.494Z" transform="translate(-140.136 -409.182)" fill="#1657ab"/>
      </g>
      <g id="Group_392" data-name="Group 392" transform="translate(172.042 18.425)">
        <path id="Path_513" data-name="Path 513" d="M140.881,413.848H282.046a.745.745,0,1,0,0-1.491H140.881a.745.745,0,1,0,0,1.491Z" transform="translate(-140.136 -412.357)" fill="#1657ab"/>
      </g>
      <g id="Group_393" data-name="Group 393" transform="translate(172.042 27.387)">
        <path id="Path_514" data-name="Path 514" d="M140.881,417.025H282.046a.747.747,0,0,0,0-1.494H140.881a.747.747,0,0,0,0,1.494Z" transform="translate(-140.136 -415.531)" fill="#1657ab"/>
      </g>
      <g id="Group_394" data-name="Group 394" transform="translate(172.042 36.35)">
        <path id="Path_515" data-name="Path 515" d="M140.881,420.2H282.046a.747.747,0,0,0,0-1.494H140.881a.747.747,0,0,0,0,1.494Z" transform="translate(-140.136 -418.705)" fill="#1657ab"/>
      </g>
      <g id="Group_395" data-name="Group 395" transform="translate(172.042 45.313)">
        <path id="Path_516" data-name="Path 516" d="M140.881,423.373H282.046a.747.747,0,0,0,0-1.494H140.881a.747.747,0,0,0,0,1.494Z" transform="translate(-140.136 -421.879)" fill="#1657ab"/>
      </g>
    </g>
    <g id="Group_405" data-name="Group 405" transform="translate(964.884 650.839)">
      <g id="Group_402" data-name="Group 402" style="isolation: isolate">
        <g id="Group_399" data-name="Group 399" transform="translate(83.137 282.466)" style="isolation: isolate">
          <g id="Group_398" data-name="Group 398" clip-path="url(#clip-path)">
            <g id="Group_397" data-name="Group 397" style="isolation: isolate">
              <path id="Path_517" data-name="Path 517" d="M210.3,349.539l13.051,3.53a27.138,27.138,0,0,1-7.96-.928l-13.051-3.53a27.137,27.137,0,0,0,7.96.928Z" transform="translate(-202.337 -348.611)" fill="#1657ab"/>
            </g>
          </g>
        </g>
        <g id="Group_400" data-name="Group 400" transform="translate(25.558 3.362)">
          <path id="Path_519" data-name="Path 519" d="M241.025,225.343a31.91,31.91,0,0,0-9.343-.951q-1.021.033-2.01.159c-.161.02-.317.061-.477.086-.493.075-.985.151-1.466.262-.244.056-.476.141-.716.207-.389.107-.782.2-1.161.334-.271.095-.53.218-.8.325-.339.135-.681.257-1.012.413-.268.125-.523.283-.786.423-.317.169-.64.323-.95.513-.266.161-.52.356-.779.533-.295.2-.593.384-.879.6-.259.2-.506.43-.758.645-.274.232-.555.449-.823.7-.242.229-.472.489-.709.733-.259.266-.525.516-.777.8l-.012.015c-.042.049-.083.105-.125.154q-.612.709-1.2,1.493c-.142.191-.278.4-.418.6-.2.288-.41.565-.606.869-.08.124-.152.259-.232.383-.139.222-.274.45-.41.679q-.389.658-.762,1.356c-.129.244-.257.484-.384.735-.069.137-.144.264-.212.4-.171.35-.328.728-.493,1.092-.124.274-.252.538-.372.821-.274.643-.535,1.317-.791,2-.061.166-.127.32-.188.488l-.024.063c-.137.384-.259.8-.391,1.2-.179.543-.364,1.072-.533,1.639-.134.449-.252.933-.379,1.4-.156.572-.317,1.131-.462,1.727-.008.037-.019.071-.029.108q-.361,1.5-.679,3.112c-.178.907-.4,1.795-.633,2.673-.063.237-.124.474-.19.708-.256.892-.532,1.772-.841,2.632-.039.107-.083.208-.124.313-.283.765-.591,1.515-.916,2.253-.1.235-.21.467-.318.7-.3.642-.615,1.268-.945,1.886-.11.206-.213.418-.327.623q-.658,1.181-1.387,2.3c-.183.279-.383.542-.572.816-.352.508-.7,1.017-1.077,1.5-.232.3-.481.587-.72.88-.347.422-.694.845-1.056,1.249-.532.591-1.087,1.153-1.652,1.7-.178.174-.347.362-.528.533q-1.135,1.059-2.35,2c-.2.159-.42.3-.626.45-.616.455-1.239.9-1.883,1.31-.313.2-.637.379-.955.569-.559.33-1.121.652-1.7.948-.357.183-.719.35-1.082.52q-.843.394-1.71.738c-.376.149-.753.291-1.136.425-.593.208-1.2.391-1.8.564-.376.105-.748.217-1.128.308-.667.161-1.344.284-2.025.4-.328.056-.652.127-.984.173a29.693,29.693,0,0,1-9.765-.264q-1.079-.211-2.135-.494h0l13.051,3.528a30.076,30.076,0,0,0,8.822,1.026,29.369,29.369,0,0,0,3.078-.267c.332-.044.655-.117.984-.173.681-.115,1.358-.239,2.025-.4.379-.09.75-.2,1.124-.306.608-.173,1.21-.356,1.806-.564.381-.134.757-.276,1.131-.425.581-.229,1.15-.476,1.715-.74.362-.168.723-.337,1.078-.518.577-.3,1.141-.62,1.7-.951.317-.188.638-.366.95-.564.645-.411,1.268-.857,1.886-1.315.207-.152.421-.289.625-.447q1.214-.945,2.35-2c.181-.169.349-.356.527-.53.565-.55,1.122-1.114,1.656-1.707.066-.074.141-.139.207-.213.295-.334.564-.691.846-1.036.24-.291.488-.576.719-.879.374-.486.726-1,1.08-1.507.188-.273.388-.535.571-.813.024-.037.051-.071.076-.108.459-.709.892-1.442,1.309-2.191.115-.2.218-.418.33-.626.215-.4.437-.8.64-1.216.107-.218.2-.445.3-.667s.213-.464.318-.7c.325-.738.633-1.488.916-2.253.039-.1.085-.207.122-.313.012-.03.025-.061.036-.091.3-.831.562-1.683.808-2.544.066-.232.127-.467.19-.7.083-.313.176-.623.254-.941q.206-.858.379-1.737.328-1.663.708-3.215c.147-.6.31-1.171.469-1.752.124-.459.24-.935.372-1.376.169-.571.356-1.1.537-1.649.137-.416.267-.85.411-1.251.061-.169.129-.325.19-.493.256-.684.516-1.356.789-2,.12-.283.249-.548.372-.824.23-.508.462-1.012.7-1.493.127-.251.256-.493.386-.736q.371-.7.76-1.354c.135-.229.271-.457.41-.679.273-.433.554-.846.838-1.251.139-.2.276-.406.418-.6q.584-.787,1.2-1.5c.041-.047.078-.1.118-.146.268-.3.549-.572.824-.855.225-.23.444-.481.675-.7.286-.269.586-.5.88-.75.234-.2.46-.41.7-.593.312-.239.635-.44.955-.657.235-.157.464-.335.7-.481.342-.21.7-.383,1.05-.569.23-.12.452-.257.684-.367.352-.166.716-.3,1.077-.438.244-.1.484-.213.733-.3.347-.12.706-.207,1.061-.306.273-.076.54-.169.816-.234.45-.1.914-.174,1.375-.247.191-.03.376-.076.569-.1q.99-.127,2.01-.159C248.238,227.811,241.025,225.343,241.025,225.343Z" transform="translate(-168.326 -155.599)" fill="#1657ab"/>
          <path id="Path_520" data-name="Path 520" d="M314.17,277.627c-.039-1.668-.132-3.33-.249-4.991-.029-.423-.063-.846-.1-1.27-.13-1.579-.286-3.156-.486-4.723-.008-.068-.012-.135-.022-.2l-.007-.046c-.213-1.642-.477-3.274-.767-4.9-.073-.413-.151-.826-.229-1.238-.288-1.51-.6-3.015-.953-4.507-.03-.129-.054-.257-.086-.384-.383-1.6-.814-3.179-1.273-4.752-.115-.4-.235-.792-.356-1.188-.435-1.431-.9-2.853-1.393-4.261-.044-.125-.08-.254-.124-.378-.015-.042-.032-.085-.047-.127-.256-.711-.532-1.414-.8-2.12-.18-.466-.349-.938-.535-1.4-.308-.769-.64-1.527-.967-2.287-.169-.391-.327-.787-.5-1.175-.457-1.028-.938-2.043-1.431-3.054-.056-.113-.107-.232-.163-.345q-.83-1.684-1.722-3.33c-.185-.34-.384-.672-.572-1.011-.42-.752-.836-1.505-1.275-2.245-.249-.42-.516-.83-.772-1.246-.4-.647-.789-1.3-1.2-1.933-.288-.444-.591-.877-.887-1.315-.4-.594-.794-1.194-1.209-1.779-.318-.45-.652-.889-.979-1.334-.411-.56-.818-1.124-1.241-1.676-.044-.056-.083-.115-.127-.171-.147-.19-.308-.371-.457-.56q-1.064-1.351-2.175-2.665c-.3-.359-.616-.713-.926-1.067q-1.021-1.163-2.082-2.292c-.306-.325-.609-.653-.921-.975-.972-1-1.962-1.988-2.985-2.946-.037-.036-.073-.073-.11-.108-1.058-.987-2.15-1.943-3.261-2.881-.112-.095-.217-.2-.328-.291-.161-.135-.337-.256-.5-.389-1.307-1.077-2.644-2.123-4.022-3.127-.137-.1-.267-.2-.4-.3-1.461-1.051-2.971-2.048-4.51-3.013-.174-.11-.335-.234-.511-.342s-.384-.217-.572-.33q-1.62-.985-3.3-1.9c-.252-.139-.5-.286-.752-.422q-2.042-1.092-4.165-2.077c-.113-.054-.22-.115-.335-.168-.289-.134-.594-.249-.885-.379-.963-.432-1.935-.852-2.922-1.251-.486-.2-.973-.389-1.464-.579-.99-.381-1.993-.742-3-1.09-.317-.108-.62-.235-.938-.34-.137-.046-.281-.081-.42-.125-1.453-.474-2.922-.924-4.422-1.331l-.017-.005-13.051-3.528c1.505.406,2.981.858,4.441,1.334.455.149.9.312,1.356.466q1.519.523,3.007,1.092.734.282,1.459.576,1.481.6,2.924,1.253c.408.183.821.359,1.224.547q2.12.99,4.165,2.079c.252.134.494.279.745.416q1.681.922,3.306,1.908c.362.22.72.443,1.078.669,1.539.965,3.051,1.964,4.512,3.017.137.1.268.2.4.3q2.067,1.508,4.026,3.13c.274.225.552.447.824.676,1.111.938,2.2,1.9,3.262,2.885.034.032.066.066.1.1,1.024.96,2.018,1.949,2.991,2.953.313.322.616.652.923.977q1.059,1.128,2.081,2.291c.31.354.621.708.926,1.067q1.115,1.313,2.175,2.666c.193.245.394.484.584.731.425.552.833,1.119,1.246,1.681.323.442.657.879.973,1.327.413.582.806,1.18,1.205,1.774.3.44.6.875.892,1.322.41.633.8,1.278,1.194,1.922.259.418.527.833.779,1.256.433.731.846,1.478,1.261,2.221.193.347.4.686.586,1.036q.894,1.646,1.722,3.33c.044.09.085.181.127.271q.759,1.552,1.466,3.127c.178.4.337.8.508,1.2.325.752.652,1.5.958,2.263.191.479.367.967.552,1.451.264.687.535,1.375.784,2.069.063.173.115.347.176.52.5,1.4.955,2.82,1.388,4.248.122.4.242.794.357,1.192.459,1.573.89,3.156,1.275,4.752.03.127.054.254.085.381.352,1.493.665,3,.953,4.508.078.411.156.824.229,1.238.29,1.627.554,3.259.769,4.9.01.078.015.157.025.235.2,1.573.357,3.154.488,4.739.034.42.068.841.1,1.263.117,1.661.21,3.325.249,4.992q.089,3.812.046,7.459c0,.278-.017.543-.02.819q-.046,2.948-.174,5.792c-.031.684-.071,1.354-.108,2.03q-.124,2.275-.3,4.488c-.052.66-.1,1.324-.163,1.976q-.236,2.6-.542,5.1c-.037.3-.066.616-.1.916-.242,1.9-.52,3.75-.818,5.573-.073.445-.149.887-.225,1.329-.295,1.7-.606,3.384-.948,5.021-.025.125-.049.254-.074.379-.371,1.756-.775,3.464-1.2,5.145q-.135.538-.273,1.068c-.425,1.634-.867,3.239-1.336,4.8-.056.183-.115.361-.171.543q-.665,2.181-1.39,4.273c-.1.276-.188.555-.284.828q-.777,2.2-1.613,4.3c-.117.295-.237.586-.355.877-.548,1.353-1.111,2.682-1.693,3.973-.037.085-.073.173-.112.256-.6,1.326-1.224,2.609-1.857,3.873-.173.347-.349.691-.525,1.033q-.9,1.757-1.84,3.44c-.058.1-.113.212-.171.315-.682,1.207-1.381,2.377-2.091,3.525-.188.3-.378.6-.567.906q-.815,1.29-1.649,2.526c-.232.345-.462.7-.7,1.034-.76,1.1-1.527,2.181-2.306,3.223-1.009,1.349-1.981,2.672-2.929,3.977-.306.42-.6.831-.9,1.246-.638.885-1.268,1.766-1.877,2.631-.328.466-.65.926-.97,1.387q-.843,1.211-1.652,2.4c-.31.455-.621.913-.924,1.363-.554.824-1.09,1.639-1.618,2.446-.188.286-.389.582-.574.867-.052.081-.1.161-.152.242q-1.293,2-2.478,3.931c-.183.3-.356.591-.535.885q-.952,1.569-1.837,3.1c-.188.323-.379.65-.562.972-.708,1.244-1.392,2.473-2.037,3.686-.1.18-.185.355-.278.533q-.836,1.58-1.6,3.125c-.085.171-.181.347-.264.516-.1.213-.2.42-.3.631-.234.484-.46.967-.686,1.447q-.315.678-.618,1.349-.323.716-.628,1.425c-.193.445-.384.889-.567,1.329-.2.472-.388.941-.576,1.41-.176.438-.35.877-.52,1.314-.179.467-.352.931-.523,1.4-.1.273-.21.549-.308.821-.034.1-.061.2-.095.295q-.757,2.131-1.4,4.246c-.071.235-.142.472-.212.708q-.622,2.118-1.141,4.231c-.022.088-.051.176-.071.262-.029.117-.047.235-.075.352q-.559,2.357-1,4.727c-.037.2-.073.411-.11.616q-.422,2.369-.738,4.774c-.012.091-.03.181-.042.273-.022.164-.034.334-.054.5-.146,1.165-.278,2.336-.388,3.52-.01.1-.022.191-.03.288-.115,1.265-.208,2.546-.291,3.84-.019.3-.037.606-.054.909-.075,1.3-.137,2.6-.181,3.931,0,.1-.005.2-.009.293-.041,1.271-.066,2.568-.083,3.879,0,.168-.008.33-.01.5,0,.129,0,.267,0,.4q-.02,2.232,0,4.546c0,.271.005.548.008.821.017,1.61.042,3.244.083,4.925a2.311,2.311,0,0,1-.152.858l0,.008a3.542,3.542,0,0,1-.437.78c-.037.051-.078.1-.119.152a5.723,5.723,0,0,1-.5.549c-.093.093-.181.188-.286.279-.2.183-.433.362-.672.54-.091.068-.171.137-.267.2-.345.244-.719.484-1.119.718-.078.046-.168.09-.249.135-.328.188-.669.371-1.024.55-.159.08-.325.158-.489.235-.3.142-.6.283-.906.42-.185.081-.371.161-.559.24-.3.129-.615.254-.926.378-.191.074-.383.151-.577.223q-.5.185-1,.362c-.176.063-.349.125-.525.185q-.627.213-1.253.408l-.274.088c-.51.156-1.014.3-1.51.44-.135.037-.266.069-.4.1-.356.1-.709.188-1.051.273-.173.042-.339.081-.506.12-.293.069-.581.135-.858.195-.171.037-.335.071-.5.1-.264.052-.516.1-.762.146-.147.025-.295.053-.432.075-.252.042-.484.074-.709.1-.107.014-.222.032-.322.042-.31.036-.6.059-.835.068l-19.5.618,13.051,3.53,19.5-.618c.239-.009.523-.032.833-.068.1-.012.218-.029.327-.044.223-.029.452-.061.7-.1.141-.022.288-.049.437-.076.246-.044.5-.091.76-.146.164-.032.328-.066.5-.1.278-.059.564-.125.857-.195.171-.039.337-.078.511-.12.34-.085.691-.176,1.045-.271.135-.037.267-.069.4-.108q.744-.206,1.508-.438l.289-.093c.411-.129.823-.261,1.234-.4.179-.061.356-.125.535-.188.335-.119.667-.237,1-.362.193-.073.383-.147.572-.222q.472-.185.931-.379c.186-.08.372-.158.555-.239.313-.137.615-.279.914-.423.161-.076.323-.152.479-.23.357-.179.7-.364,1.026-.55.083-.047.171-.091.252-.139q.6-.35,1.119-.716c.095-.068.173-.135.262-.2.24-.179.471-.359.677-.543.1-.091.19-.183.283-.276s.225-.2.317-.308c.069-.08.124-.163.186-.242.041-.051.081-.1.119-.154s.068-.081.1-.124a3.533,3.533,0,0,0,.213-.367,2.66,2.66,0,0,0,.125-.288l.005-.01,0-.009a2.511,2.511,0,0,0,.085-.279c.02-.083.036-.168.047-.251a2.519,2.519,0,0,0,.017-.252V457.7c-.041-1.674-.066-3.3-.083-4.908,0-.281-.007-.565-.008-.845-.014-1.539-.014-3.046,0-4.529,0-.308.007-.611.01-.916.017-1.307.042-2.6.083-3.868,0-.1.005-.2.007-.293.046-1.331.108-2.636.183-3.931.017-.3.036-.608.054-.909.083-1.293.176-2.577.291-3.841.008-.095.02-.19.03-.286.11-1.185.242-2.355.386-3.52.032-.257.064-.515.1-.772q.315-2.4.738-4.771c.037-.207.073-.415.11-.621q.439-2.372,1-4.722c.047-.206.095-.413.146-.62q.515-2.113,1.141-4.226c.069-.237.141-.476.212-.713q.642-2.115,1.395-4.248c.13-.366.264-.735.4-1.1.173-.469.347-.938.528-1.41.168-.433.342-.868.516-1.3q.282-.706.577-1.417c.183-.44.374-.882.565-1.326.207-.474.415-.951.63-1.431q.3-.668.618-1.342.335-.726.687-1.456c.183-.378.371-.76.559-1.141q.767-1.552,1.6-3.135c.093-.174.178-.347.273-.523q.97-1.818,2.038-3.689c.183-.32.372-.645.56-.967q.889-1.536,1.844-3.11c.176-.291.347-.579.528-.874q1.188-1.935,2.478-3.933c.237-.367.488-.745.731-1.117.528-.806,1.063-1.617,1.617-2.441.3-.45.613-.906.923-1.361q.808-1.183,1.649-2.392c.323-.464.645-.928.977-1.4.608-.863,1.236-1.74,1.872-2.622.3-.418.593-.83.9-1.251.948-1.3,1.92-2.626,2.929-3.977.779-1.041,1.546-2.12,2.3-3.22.234-.34.464-.691.7-1.038.327-.486.657-.96.979-1.456.227-.35.449-.718.674-1.073.188-.3.374-.594.56-.9.711-1.151,1.412-2.323,2.094-3.533.056-.1.11-.2.166-.3.63-1.122,1.244-2.279,1.849-3.454q.262-.508.52-1.024c.166-.332.337-.652.5-.987q.693-1.417,1.358-2.888c.041-.086.078-.178.117-.264.581-1.292,1.143-2.619,1.691-3.97.118-.29.237-.577.354-.872.489-1.236.972-2.489,1.432-3.775.063-.174.12-.357.183-.533.095-.269.186-.545.279-.816q.724-2.1,1.393-4.281c.056-.183.115-.359.169-.542.471-1.563.912-3.169,1.336-4.8.093-.356.185-.714.274-1.073.1-.4.208-.792.3-1.2q.47-1.938.891-3.943c.027-.129.051-.262.078-.391.34-1.635.653-3.311.946-5.014.076-.438.152-.879.225-1.324.288-1.759.56-3.542.8-5.372.008-.068.014-.137.022-.2.039-.3.068-.613.1-.914q.307-2.506.543-5.1c.059-.65.11-1.31.163-1.969q.178-2.214.3-4.495c.037-.674.078-1.342.108-2.023q.127-2.857.174-5.815c0-.267.017-.526.019-.8,0-.056,0-.108,0-.164Q314.258,281.352,314.17,277.627Z" transform="translate(-141.5 -183.748)" fill="#1657ab"/>
        </g>
        <g id="Group_401" data-name="Group 401">
          <path id="Path_521" data-name="Path 521" d="M241.78,181.819c60.409-1.915,95.474,44.491,96.627,93.654.968,41.332-9.865,68.5-23.561,86.824-29.1,38.945-32.618,58.06-31.792,93.254.108,4.623-15.106,8.856-19.223,8.986l-19.5.618c-16.738.53-30.666-14.3-31.106-33.1-1.283-54.75,15.589-69.265,27.04-89.184,5.934-10.249,29-23.842,28.232-56.8-.5-21.223-7.823-32.735-26.349-32.149-10.889.345-19.174,8.675-22.8,27.072-3.308,16.83-16.422,28.961-31.738,29.447-21.555.684-38.212-21.485-33.612-45.178C162.254,222.872,186.02,183.587,241.78,181.819Z" transform="translate(-153.229 -181.762)" fill="#549ffe"/>
        </g>
      </g>
      <g id="Group_404" data-name="Group 404" transform="translate(61.518 299.55)" style="isolation: isolate">
        <path id="Path_522" data-name="Path 522" d="M263.832,402.921c.071-.543.117-1.1.163-1.645.01-.119.027-.237.036-.356.059-.794.1-1.593.105-2.4q.008-.625-.009-1.254c-.022-.924-.088-1.834-.176-2.739-.02-.21-.041-.418-.064-.628-.022-.193-.036-.391-.061-.584q-.135-1.034-.327-2.047c-.019-.1-.042-.195-.063-.293-.154-.791-.337-1.571-.542-2.341-.051-.193-.1-.388-.154-.579-.215-.76-.445-1.515-.708-2.253-.019-.054-.044-.1-.063-.157-.171-.476-.371-.935-.559-1.4-.179-.44-.345-.885-.54-1.317-.207-.455-.442-.894-.665-1.337-.212-.422-.411-.848-.638-1.26-.242-.437-.51-.855-.769-1.28-.242-.4-.471-.8-.728-1.19-.274-.415-.574-.807-.863-1.21-.245-.339-.474-.691-.731-1.021-.022-.03-.049-.056-.073-.085-.718-.921-1.486-1.8-2.287-2.641-.213-.225-.438-.438-.657-.657q-.952-.955-1.972-1.834c-.152-.132-.288-.283-.444-.411-.139-.117-.288-.218-.428-.332-.29-.235-.584-.459-.882-.684-.427-.325-.858-.64-1.3-.945-.31-.213-.621-.422-.938-.626-.191-.124-.376-.261-.57-.381-.32-.2-.654-.378-.98-.565-.2-.119-.406-.24-.615-.354-.721-.4-1.453-.775-2.2-1.121-.032-.015-.064-.027-.1-.042-.1-.046-.2-.085-.3-.129q-1.031-.46-2.1-.853c-.213-.081-.428-.159-.643-.235-.188-.066-.372-.141-.562-.2q-.94-.313-1.9-.571l-13.051-3.53c.835.225,1.652.491,2.462.775.215.074.427.154.64.232.711.266,1.412.548,2.1.857.1.044.2.083.3.127.784.359,1.549.752,2.3,1.165.2.112.4.234.608.35q.79.454,1.554.948.475.307.94.628.66.457,1.3.941c.3.225.593.452.882.686s.582.494.872.745q1.018.879,1.971,1.83c.22.22.445.433.66.66.8.843,1.568,1.72,2.285,2.639.283.361.54.741.809,1.114.288.4.586.791.858,1.2.257.391.489.8.733,1.2.257.423.523.838.764,1.271.227.411.428.841.64,1.261.223.445.457.882.662,1.336.2.433.364.882.543,1.324.188.462.388.919.557,1.393q.427,1.186.77,2.412c.054.191.1.384.154.576.2.772.388,1.552.543,2.343.019.1.042.195.061.293.162.865.286,1.745.388,2.633.024.208.044.418.064.628.088.9.156,1.815.176,2.738.029,1.232-.007,2.45-.1,3.655-.009.119-.025.237-.034.356q-.137,1.617-.4,3.195c-.017.1-.029.195-.046.291-.195,1.075-.442,2.13-.726,3.171-.042.157-.081.315-.125.469-.288,1-.62,1.984-.987,2.951-.069.181-.139.362-.212.543-.383.96-.8,1.9-1.258,2.82-.081.166-.173.327-.257.491q-.64,1.237-1.368,2.418c-.1.159-.191.322-.291.479-.579.907-1.193,1.791-1.845,2.643-.129.166-.269.322-.4.486-.571.72-1.161,1.424-1.783,2.1-.1.113-.208.227-.315.339q-1.051,1.112-2.192,2.135c-.117.1-.234.207-.35.308q-1.153,1.008-2.387,1.918c-.124.091-.249.181-.374.269q-1.249.9-2.575,1.691l-.383.222q-1.348.782-2.763,1.451c-.122.058-.247.112-.369.168-.963.439-1.947.843-2.951,1.2-.112.039-.223.073-.334.112-1.029.352-2.077.664-3.145.924-.088.02-.178.037-.267.058-1.1.259-2.214.472-3.35.626-.052.008-.108.012-.162.019a35.779,35.779,0,0,1-14.043-.916l13.051,3.528a35.647,35.647,0,0,0,10.466,1.214c1.209-.039,2.4-.142,3.577-.3.054-.007.108-.01.162-.019,1.136-.154,2.252-.367,3.35-.626.088-.02.179-.037.268-.059,1.068-.259,2.116-.57,3.145-.923.11-.039.223-.073.333-.112,1-.356,1.986-.758,2.949-1.2.124-.056.249-.11.371-.168q1.417-.665,2.761-1.451c.129-.075.257-.147.384-.224q1.326-.79,2.573-1.688l.378-.273q1.232-.907,2.384-1.915c.119-.1.235-.208.354-.313q1.138-1.021,2.189-2.131c.108-.112.212-.227.318-.34.178-.195.364-.383.538-.581.43-.488.833-1,1.238-1.51.132-.166.274-.323.4-.493.589-.769,1.155-1.559,1.683-2.373.058-.088.107-.179.163-.268.1-.157.193-.32.291-.479q.726-1.181,1.366-2.417c.086-.164.178-.325.259-.491.046-.091.1-.178.142-.269.406-.833.772-1.688,1.116-2.553.071-.179.142-.359.212-.542.085-.222.178-.44.259-.665.269-.75.506-1.513.726-2.285.046-.156.085-.313.127-.469.095-.345.2-.689.281-1.038.169-.7.315-1.415.444-2.133.019-.1.031-.195.047-.293C263.679,403.955,263.766,403.442,263.832,402.921Z" transform="translate(-178.678 -358.199)" fill="#1657ab"/>
        <g id="Group_403" data-name="Group 403">
          <path id="Path_523" data-name="Path 523" d="M224.919,358.721a36.087,36.087,0,0,1,37.045,35.518c.476,20.248-15.35,37.163-35.327,37.8a36.075,36.075,0,0,1-37.06-35.5C189.1,376.285,204.927,359.355,224.919,358.721Z" transform="translate(-189.567 -358.702)" fill="#549ffe"/>
        </g>
      </g>
    </g>
    <g id="Group_413" data-name="Group 413" transform="translate(1194.585 647.669)">
      <g id="Group_407" data-name="Group 407" style="isolation: isolate">
        <path id="Path_524" data-name="Path 524" d="M373.263,222.078c-.005-.1-.02-.2-.027-.3-.059-.875-.134-1.747-.246-2.605-.02-.159-.051-.313-.073-.471-.032-.225-.071-.449-.107-.674-.147-.938-.322-1.867-.53-2.783-.031-.135-.054-.273-.086-.408-.239-1.007-.52-2-.829-2.973-.071-.227-.147-.452-.223-.679-.093-.281-.178-.565-.278-.843-.134-.376-.3-.735-.445-1.1-.188-.479-.374-.96-.577-1.429-.247-.571-.518-1.126-.789-1.681-.222-.454-.437-.909-.674-1.353-.295-.552-.615-1.087-.933-1.625-.25-.423-.493-.85-.758-1.263-.344-.537-.714-1.053-1.082-1.571-.274-.389-.538-.784-.824-1.161-.058-.076-.108-.157-.166-.234-.538-.7-1.1-1.371-1.684-2.033-.141-.163-.289-.317-.433-.477q-.851-.94-1.757-1.827c-.156-.152-.308-.31-.467-.46-.642-.608-1.3-1.2-1.976-1.769-.073-.061-.152-.113-.225-.174-.278-.227-.567-.438-.85-.659-.559-.435-1.119-.863-1.7-1.27-.335-.235-.681-.459-1.024-.684-.325-.213-.638-.444-.97-.647-.271-.168-.554-.318-.83-.479-.25-.147-.5-.293-.755-.435-.852-.474-1.715-.928-2.6-1.341-.041-.02-.081-.042-.122-.061l-.027-.014c-.909-.42-1.844-.8-2.788-1.15-.237-.09-.476-.174-.714-.259-.254-.09-.5-.191-.755-.274q-1.077-.358-2.181-.657L329.7,180.726c1,.269,1.971.587,2.936.929.239.085.477.171.714.259.953.357,1.9.738,2.815,1.163l.125.063c.885.413,1.751.867,2.6,1.341.252.14.5.286.752.433.613.357,1.21.738,1.8,1.127.342.225.687.447,1.022.682.581.406,1.144.836,1.7,1.271.281.22.57.43.846.657q1.133.935,2.2,1.943c.159.151.311.308.469.462q.9.884,1.754,1.825c.146.159.295.317.437.479q.962,1.1,1.849,2.265c.286.378.552.774.826,1.163.367.518.736,1.033,1.08,1.569.266.413.508.843.76,1.266.318.535.637,1.072.931,1.622.237.445.454.9.676,1.354.271.555.54,1.111.787,1.678.2.471.389.951.577,1.431.252.643.5,1.288.723,1.947.076.227.152.452.224.681.31.975.591,1.966.829,2.971.032.135.056.273.086.408.208.918.383,1.847.532,2.787.034.223.073.445.1.669q.216,1.526.32,3.088c.007.1.022.191.027.288q.109,1.806.068,3.652l-5.057,211.1c-.029,1.187-.122,2.358-.266,3.513-.122.972-.289,1.928-.489,2.873-.036.168-.068.335-.107.5-.108.483-.256.952-.386,1.426-.193.713-.394,1.42-.63,2.113-.278.809-.565,1.617-.9,2.4-.037.088-.081.174-.12.262-.352.806-.738,1.593-1.148,2.365-.093.176-.183.354-.279.528q-.67,1.211-1.432,2.363c-.163.244-.337.477-.5.718-.4.567-.806,1.124-1.234,1.666-.213.269-.432.533-.652.794-.359.427-.735.838-1.114,1.248-.413.445-.836.882-1.271,1.305q-.536.518-1.089,1.012c-.454.4-.919.792-1.393,1.173-.386.308-.775.613-1.175.906-.493.361-1,.7-1.515,1.036-.41.269-.821.537-1.243.787-.535.317-1.085.608-1.639.9-.43.223-.855.452-1.3.657-.579.271-1.175.508-1.771.745-.439.176-.872.362-1.32.52-.635.223-1.287.4-1.938.589-.432.122-.855.264-1.293.369-.733.176-1.485.3-2.236.432-.374.063-.74.151-1.117.2a33.747,33.747,0,0,1-3.462.293,33.343,33.343,0,0,1-7.4-.586q-1.2-.231-2.362-.547h0l13.051,3.53a33.34,33.34,0,0,0,9.765,1.133,33.805,33.805,0,0,0,3.462-.293c.377-.052.743-.14,1.117-.2.752-.127,1.5-.254,2.237-.43.438-.107.86-.247,1.292-.369.652-.184,1.305-.367,1.94-.589.449-.158.88-.344,1.319-.52.6-.237,1.192-.474,1.773-.745.44-.2.865-.433,1.3-.659.554-.288,1.1-.577,1.639-.894.423-.25.831-.52,1.243-.787.515-.335,1.021-.676,1.515-1.036.4-.293.787-.6,1.175-.907q.711-.569,1.393-1.171c.371-.33.731-.667,1.087-1.014q.655-.635,1.273-1.3c.188-.2.4-.388.581-.6s.352-.437.533-.652c.22-.262.439-.525.652-.794.428-.542.836-1.1,1.232-1.666.168-.241.344-.474.506-.718.056-.088.122-.168.178-.254.445-.686.858-1.393,1.255-2.111.1-.173.184-.35.278-.526.181-.339.367-.672.537-1.017.217-.444.415-.9.613-1.348.039-.088.083-.174.12-.264.269-.628.523-1.266.755-1.915.058-.157.091-.325.146-.484.235-.692.437-1.4.63-2.111.088-.322.206-.63.286-.955.037-.156.064-.315.1-.472s.071-.334.107-.5c.191-.907.361-1.823.481-2.755.005-.039,0-.08.008-.118.144-1.155.237-2.324.266-3.511l5.057-211.1q.008-.307.01-.615Q373.356,223.581,373.263,222.078Z" transform="translate(-272.607 -179.31)" fill="#1657ab"/>
        <g id="Group_406" data-name="Group 406">
          <path id="Path_525" data-name="Path 525" d="M333.971,179.911c23.776-.753,43.192,18.782,42.611,42.869l-5.057,211.1A34.384,34.384,0,0,1,338.5,467.571a33.7,33.7,0,0,1-34.55-31.55L289.02,225.556c-1.708-24.016,16.764-44.751,40.539-45.5Z" transform="translate(-288.91 -179.89)" fill="#549ffe"/>
        </g>
      </g>
      <g id="Group_412" data-name="Group 412" transform="translate(11.838 305.536)" style="isolation: isolate">
        <g id="Group_409" data-name="Group 409" transform="translate(27.735 75.279)" style="isolation: isolate">
          <g id="Group_408" data-name="Group 408" clip-path="url(#clip-path-2)">
            <path id="Path_526" data-name="Path 526" d="M323.193,406.095l13.051,3.53a37.175,37.175,0,0,1-10.908-1.265l-13.051-3.528a37.232,37.232,0,0,0,10.908,1.263Z" transform="translate(-312.285 -404.832)" fill="#1657ab"/>
          </g>
        </g>
        <g id="Group_410" data-name="Group 410" transform="translate(38.642 76.459)">
          <path id="Path_528" data-name="Path 528" d="M321.381,405.529l13.051,3.529-2.652.084-13.051-3.529Z" transform="translate(-318.728 -405.529)" fill="#1a4279"/>
        </g>
        <path id="Path_529" data-name="Path 529" d="M369.572,408.278c.1-.532.178-1.068.252-1.606.017-.12.041-.237.056-.357l0-.03q.132-1.049.208-2.116c.015-.213.02-.428.034-.643.027-.5.049-1.007.059-1.514,0-.1.01-.191.01-.29.005-.435,0-.87-.008-1.309-.022-.962-.093-1.911-.183-2.854-.022-.218-.044-.435-.068-.652s-.037-.408-.063-.609c-.093-.718-.21-1.429-.342-2.133-.019-.1-.044-.206-.064-.311-.163-.823-.354-1.635-.565-2.438-.054-.2-.1-.4-.161-.6-.224-.792-.464-1.58-.736-2.35-.02-.056-.046-.108-.066-.164-.178-.5-.388-.98-.586-1.468-.185-.456-.357-.916-.559-1.363-.217-.479-.464-.94-.7-1.407-.218-.433-.425-.877-.66-1.3-.252-.457-.533-.894-.8-1.337-.252-.415-.491-.836-.758-1.239-.284-.432-.6-.843-.9-1.261-.256-.354-.494-.721-.76-1.067-.024-.031-.053-.056-.076-.086-.748-.96-1.549-1.872-2.385-2.753-.224-.235-.457-.459-.687-.687q-.993-1-2.054-1.91c-.161-.139-.3-.3-.462-.43-.146-.12-.3-.227-.445-.345-.3-.245-.613-.481-.923-.716-.444-.335-.894-.664-1.351-.98q-.488-.335-.982-.655c-.2-.129-.391-.271-.594-.4-.335-.208-.684-.4-1.026-.592-.212-.122-.42-.249-.633-.366-.753-.413-1.517-.809-2.3-1.17-.032-.017-.068-.029-.1-.044-.1-.047-.212-.088-.315-.134-.716-.322-1.446-.616-2.186-.89-.223-.085-.447-.166-.672-.245-.2-.068-.388-.147-.586-.212q-.978-.325-1.979-.6l-13.051-3.53c.868.235,1.722.513,2.565.807.225.08.45.163.674.245.738.274,1.466.569,2.181.889.1.047.213.088.318.135.816.374,1.615.782,2.4,1.212.215.118.425.247.638.369q.82.472,1.617.987.5.32.982.655.686.475,1.351.982c.31.234.62.471.923.714s.606.515.907.775q1.062.917,2.053,1.91c.23.229.466.452.689.687.835.88,1.635,1.795,2.384,2.753.293.374.559.767.836,1.153.3.418.616.83.9,1.261.267.4.508.828.76,1.244.269.442.549.877.8,1.331.237.428.445.874.665,1.312.234.464.477.921.692,1.4.2.449.378.914.564,1.373.2.484.4.962.582,1.456q.444,1.237.8,2.516c.056.2.108.4.161.6.213.8.4,1.615.565,2.439.02.1.046.2.064.306.169.9.3,1.82.4,2.744.025.215.046.433.068.65.09.943.161,1.893.183,2.854.014.537.007,1.068,0,1.6-.008.506-.032,1.009-.059,1.51-.012.215-.019.432-.034.645-.051.711-.119,1.415-.208,2.115-.019.139-.044.274-.063.411-.073.53-.152,1.06-.247,1.583-.044.244-.1.483-.147.725-.085.417-.168.831-.264,1.243-.063.266-.134.527-.2.791-.1.378-.2.757-.306,1.131-.078.271-.163.538-.247.806-.113.362-.23.723-.354,1.078-.091.262-.186.523-.284.784-.14.381-.288.757-.44,1.133-.1.251-.2.5-.312.747q-.249.571-.516,1.133c-.1.225-.208.452-.318.674-.318.64-.647,1.273-1,1.893l-.034.056c-.342.6-.7,1.192-1.075,1.772-.1.154-.2.3-.3.457q-.625.947-1.3,1.852c-.076.1-.149.207-.225.308-.508.664-1.041,1.309-1.59,1.937-.168.193-.339.384-.51.574-.222.244-.445.486-.672.723q-.3.32-.618.631c-.232.23-.464.459-.7.684q-.32.3-.648.6-.363.33-.735.65c-.224.193-.447.383-.674.569q-.381.312-.769.615c-.232.181-.467.362-.7.538-.262.195-.528.384-.8.574-.242.169-.484.339-.73.5-.273.183-.549.359-.826.535-.249.159-.5.317-.75.469-.284.171-.572.335-.862.5-.254.144-.508.289-.767.428-.295.157-.593.308-.892.457-.261.132-.521.264-.785.389-.3.144-.613.279-.921.416-.267.117-.533.237-.8.349-.315.13-.633.251-.951.372-.271.1-.542.21-.818.308-.323.115-.652.22-.98.327-.276.088-.548.181-.828.266-.339.1-.682.19-1.024.283-.273.073-.545.151-.819.218-.357.086-.718.161-1.077.237-.269.058-.537.12-.808.173-.383.073-.77.13-1.156.191-.254.041-.5.086-.76.122-.432.059-.869.1-1.305.146-.215.022-.427.052-.643.071q-.983.081-1.977.115l13.051,3.53q1-.033,1.977-.117c.217-.017.428-.047.643-.069.437-.044.874-.086,1.305-.146.256-.035.506-.083.758-.122.388-.061.775-.12,1.158-.191.271-.053.535-.115.8-.173.361-.076.723-.151,1.08-.239.274-.066.545-.144.818-.217.344-.093.687-.183,1.026-.284.279-.083.552-.176.826-.264.328-.108.659-.212.984-.328.274-.1.543-.2.813-.306.32-.122.64-.242.955-.372.269-.112.533-.23.8-.349.31-.135.62-.272.926-.416.262-.125.523-.257.782-.388.3-.151.6-.3.894-.46.259-.139.513-.283.769-.428.288-.163.576-.327.858-.5.254-.152.5-.31.752-.469.278-.176.554-.352.826-.535.245-.166.488-.335.73-.5.268-.19.533-.379.8-.576q.355-.264.7-.537.388-.3.767-.614c.227-.186.452-.378.676-.569.247-.215.493-.43.735-.65.218-.2.435-.4.648-.6q.355-.338.7-.684c.21-.21.416-.42.62-.633.227-.237.449-.478.669-.72.117-.129.239-.251.354-.381.056-.063.105-.132.161-.2.548-.628,1.08-1.273,1.588-1.937.076-.1.147-.2.222-.3q.68-.909,1.307-1.859c.061-.091.13-.176.19-.267.039-.061.073-.125.112-.186.376-.584.74-1.177,1.083-1.783l.025-.044c.352-.621.681-1.254,1-1.9.031-.063.066-.122.1-.185.078-.159.146-.325.222-.486.176-.376.35-.752.515-1.134.108-.247.21-.5.313-.748.152-.374.3-.753.442-1.134.052-.14.112-.276.162-.416.042-.118.076-.242.119-.361.125-.361.242-.723.357-1.087.083-.266.168-.532.245-.8.108-.376.208-.755.306-1.136.049-.191.108-.381.156-.574.017-.071.029-.144.044-.213.1-.415.183-.833.267-1.251C369.475,408.754,369.529,408.519,369.572,408.278Z" transform="translate(-279 -359.841)" fill="#1657ab"/>
        <g id="Group_411" data-name="Group 411">
          <path id="Path_530" data-name="Path 530" d="M335.407,360.385a37.623,37.623,0,0,1,38.631,37.023c.494,21.111-16,38.755-36.84,39.417l-2.653.083a37.613,37.613,0,0,1-38.631-37.023c-.494-21.1,16-38.755,36.84-39.417Z" transform="translate(-295.903 -360.366)" fill="#549ffe"/>
        </g>
      </g>
    </g>
    <g id="character5" transform="translate(1253.866 281.822)">
      <path id="Path_531" data-name="Path 531" d="M337.681,109.2c14.771,25.45,35.859,74.7,55.515,90.6,2.171,1.756,23.948,17.219,31.778,19.427,4.583,1.29,16.129-5.845,20.029-6.19,9.863-.867,33.919,5.374,28.986,8.144-.556.313-12.114.977-16.146.254-3.7-.664-14.074,7.522-13.98,9.369.257,4.973,9.284,3.891,10.586,9.567.4,1.742-4.4.347-7.492-.3-4.733-.994-10.275-1.175-12.376-1.977-4.642-1.771-6.325-7.288-9.7-7.288-19.865,0-58.994-9.369-65.288-12.645-21.206-11.038-46.258-56.881-46.258-56.881Z" transform="translate(-262.592 -9.623)" fill="url(#radial-gradient)"/>
      <path id="Path_532" data-name="Path 532" d="M324.831,107.864c21.935,18.128,39.589,58.765,43.57,64.935,1.211,1.881-30.818,23.135-42.1,22.164-3.391-.291-10.3-15.067-10.3-15.067Z" transform="translate(-257.73 -12.063)" fill="#b63f70"/>
      <g id="Group_414" data-name="Group 414" transform="translate(28.224 216.324)">
        <path id="Path_533" data-name="Path 533" d="M364.167,229.209c-1.824-.04-5.6,10.346-4.267,14.85,1.225,4.159,60.5,4.159,60.5-.076,0-5.32-29.234-12-37.9-14.774C378.7,227.994,364.167,229.209,364.167,229.209Z" transform="translate(-206.397 -8.07)" fill="#00274a"/>
        <path id="Path_534" data-name="Path 534" d="M360.765,224.716c1.8,9.053,3.106,20.681,2.129,25.727-.373,1.934,16.313,5.407,23.163,2.8,1.643-.627-5.893-2.931-6.06-3.329-1.892-4.515-3.1-14.915-.9-32.035C379.376,215.7,360.765,224.716,360.765,224.716Z" transform="translate(-204.311 -28.373)" fill="#e1a17b"/>
        <path id="Path_535" data-name="Path 535" d="M335.148,150.546c-18.507,10.408-26.752,29.6-29.152,43.463-3.747,21.658,8.892,40.944,41.419,40.944,32.5,0,93.3-10.643,98.514-8.33-1.584.373-7.548,24.081-6.283,34.653,4.281,35.723,20.755,86.81,22.83,95.027,1.132,4.487,15.8,3.287,17.5-.4.624-1.35,3.355-49.305,6.545-96.642,2.138-31.7,12.139-54.487,3.4-73.5-8.183-17.806-135.836-11.577-135.836-11.577Z" transform="translate(-305.358 -150.546)" fill="#00274a"/>
      </g>
      <g id="Group_415" data-name="Group 415" transform="translate(8.684 216.324)">
        <path id="Path_536" data-name="Path 536" d="M357.248,229.209c-1.824-.04-5.6,10.346-4.269,14.85,1.228,4.159,60.5,4.159,60.5-.076,0-5.32-29.231-12-37.9-14.774C371.782,227.994,357.248,229.209,357.248,229.209Z" transform="translate(-199.478 -8.07)" fill="#033b5e"/>
        <path id="Path_537" data-name="Path 537" d="M353.845,224.716c1.8,9.053,3.106,20.681,2.129,25.727-.376,1.934,16.313,5.407,23.163,2.8,1.643-.627-5.893-2.931-6.06-3.329-1.892-4.515-3.1-14.915-.9-32.035C372.456,215.7,353.845,224.716,353.845,224.716Z" transform="translate(-197.391 -28.373)" fill="#f5b58f"/>
        <path id="Path_538" data-name="Path 538" d="M328.228,150.546c-18.507,10.408-26.752,29.6-29.152,43.463-3.747,21.658,8.892,40.944,41.419,40.944,32.5,0,93.3-10.643,98.515-8.33-1.584.373-7.551,24.081-6.283,34.653,4.281,35.723,20.755,86.81,22.83,95.027,1.132,4.487,15.8,3.287,17.5-.4.627-1.35,3.357-49.305,6.548-96.642,2.138-31.7,12.137-54.487,3.4-73.5-8.18-17.806-135.836-11.577-135.836-11.577Z" transform="translate(-298.438 -150.546)" fill="#033b5e"/>
      </g>
      <path id="Path_539" data-name="Path 539" d="M390.278,155.922c6.331,39.29-3.516,101.92-6.3,106.774-3.332,5.814-72.878,23.084-77.74,14.946-2.191-3.668,7.957-26.41,4.8-64.025-.87-10.372-16.462-48.083-15.641-63.91.565-10.854,13.619-38.075,20.884-44.474,10.055-8.852,28.926-1.821,37.352,2.318C366.719,113.981,387.886,141.1,390.278,155.922Z" transform="translate(-295.363 -24.635)" fill="#b63f70"/>
      <path id="Path_540" data-name="Path 540" d="M340.586,92.8c13.342-3.473,16.2-12.808,9.561-16.284-4.69-2.451-46.374-7.381-51.321,9.81-2.157,7.5,3.589,18.959,18.857,39.527C347.453,124.485,340.586,92.8,340.586,92.8Z" transform="translate(-289.846 -73.937)" fill="#232850"/>
      <path id="Path_541" data-name="Path 541" d="M337.345,104.857c-.124,12.58.486,22.093,3.693,33.831,1.866,6.825-36.429-.178-37.663-5.374-.373-1.559,2.8-7.353,3.95-16.9s.246-22.824-2.205-29.387C302.616,80.327,337.345,104.857,337.345,104.857Z" transform="translate(-280.805 -52.174)" fill="#f6a087"/>
      <path id="Path_542" data-name="Path 542" d="M341.185,79.8c11,23.976,11.823,54.34.836,54.744-7.031.26-29.234-14.127-33.789-28.46-2.03,1.254-7.714-2-5.568-7.13,1.982-4.744,4.721-.421,6.19-.887S336.9,70.468,341.185,79.8Z" transform="translate(-282.917 -66.8)" fill="#f5b58f"/>
      <path id="Path_543" data-name="Path 543" d="M340.988,177.606s16.962,18.5,19.947,18.007c5.063-.827,34.8-32.431,43.358-49.077,5.614-10.914,13.232-49.763,16.719-48.707,3.708,1.118-4.162,15.166-.494,19.249,1.409,1.57,11.055,7.24,11.942,11.862,1.07,5.588-8.11,25.829-14.743,23.042-3.417-1.437-13.568,68.62-46.645,79.881-17.984,6.125-58.454-23.471-58.454-23.471Z" transform="translate(-263.894 -30.401)" fill="#f5b58f"/>
      <path id="Path_544" data-name="Path 544" d="M303.768,87.432c2.067,9.084-.528,15.98,3.648,20.452s21.545,24.25,34.354,21.09,6.938-26.007,6.13-27.7c-.582-1.214-3.154-3.513-5.616-2.539-6.7,2.651-12.823,11.879-15.57,11.879s-17.51-7.164-17.51-10.2-.217-13.243-2.171-15.85S302.709,82.776,303.768,87.432Z" transform="translate(-280.511 -57.229)" fill="#232850"/>
    </g>
    <g id="Group_421" data-name="Group 421" transform="translate(613.464 976.416)">
      <path id="Rectangle_222" data-name="Rectangle 222" d="M10.154,0H259.487a0,0,0,0,1,0,0V81.543a0,0,0,0,1,0,0H10.154A10.154,10.154,0,0,1,0,71.39V10.154A10.154,10.154,0,0,1,10.154,0Z" transform="translate(2.977 2.977)" fill="#fff"/>
      <g id="Group_416" data-name="Group 416">
        <path id="Path_545" data-name="Path 545" d="M364.31,462.421H105.8a17.89,17.89,0,0,1-17.869-17.869V392.791A17.888,17.888,0,0,1,105.8,374.922H364.31a2.978,2.978,0,1,1,0,5.955H105.8a11.928,11.928,0,0,0-11.913,11.913v51.762A11.928,11.928,0,0,0,105.8,456.466H364.31a2.978,2.978,0,1,1,0,5.955Z" transform="translate(-87.931 -374.922)" fill="#ff7e33"/>
      </g>
      <g id="Group_417" data-name="Group 417" transform="translate(21.655 16.519)">
        <path id="Path_546" data-name="Path 546" d="M336.408,383.751H97.088a1.49,1.49,0,0,1,0-2.979h239.32a1.49,1.49,0,0,1,0,2.979Z" transform="translate(-95.6 -380.772)" fill="#ff7e33"/>
      </g>
      <g id="Group_418" data-name="Group 418" transform="translate(21.655 32.402)">
        <path id="Path_547" data-name="Path 547" d="M336.408,389.376H97.088a1.49,1.49,0,0,1,0-2.979h239.32a1.49,1.49,0,0,1,0,2.979Z" transform="translate(-95.6 -386.397)" fill="#ff7e33"/>
      </g>
      <g id="Group_419" data-name="Group 419" transform="translate(21.655 48.286)">
        <path id="Path_548" data-name="Path 548" d="M336.408,395H97.088a1.49,1.49,0,0,1,0-2.979h239.32a1.49,1.49,0,0,1,0,2.979Z" transform="translate(-95.6 -392.022)" fill="#ff7e33"/>
      </g>
      <g id="Group_420" data-name="Group 420" transform="translate(21.655 64.169)">
        <path id="Path_549" data-name="Path 549" d="M336.408,400.626H97.088a1.49,1.49,0,0,1,0-2.979h239.32a1.49,1.49,0,0,1,0,2.979Z" transform="translate(-95.6 -397.647)" fill="#ff7e33"/>
      </g>
      <path id="Path_550" data-name="Path 550" d="M131.751,386.349h-22.22v82.4l22.22-20.847,22.22,20.847v-82.4Z" transform="translate(-48.538 -354.082)" fill="#b63f70"/>
    </g>
    <g id="Group_428" data-name="Group 428" transform="translate(588.835 924.603)">
      <path id="Path_551" data-name="Path 551" d="M100.124,356.837H261.956l-21.412,26.142,21.412,26.142H100.124a20.914,20.914,0,0,1-20.915-20.913V377.752A20.915,20.915,0,0,1,100.124,356.837Z" transform="translate(-79.209 -356.092)" fill="#ffcd30"/>
      <path id="Path_552" data-name="Path 552" d="M108.765,356.837h5.475a20.914,20.914,0,0,0-20.913,20.915v10.456a20.913,20.913,0,0,0,20.913,20.913h-5.475A20.914,20.914,0,0,1,87.85,388.209V377.752A20.915,20.915,0,0,1,108.765,356.837Z" transform="translate(-63.45 -356.092)" fill="url(#linear-gradient)"/>
      <path id="Path_553" data-name="Path 553" d="M114.584,356.837h5.478a20.915,20.915,0,0,0-20.915,20.915v10.456a20.914,20.914,0,0,0,20.915,20.913h-5.478a20.914,20.914,0,0,1-20.915-20.913V377.752A20.915,20.915,0,0,1,114.584,356.837Z" transform="translate(-52.838 -356.092)" fill="url(#linear-gradient-2)"/>
      <path id="Path_554" data-name="Path 554" d="M136.521,377.752v10.456a20.917,20.917,0,0,0,20.913,20.913h131.2V356.837h-131.2A20.918,20.918,0,0,0,136.521,377.752Z" transform="translate(25.313 -356.092)" fill="#fff"/>
      <g id="Group_422" data-name="Group 422" transform="translate(161.086)">
        <path id="Path_555" data-name="Path 555" d="M157.917,410.351h131.2a.747.747,0,0,0,0-1.494h-131.2A20.19,20.19,0,0,1,137.75,388.69V378.234a20.19,20.19,0,0,1,20.167-20.167h131.2a.747.747,0,0,0,0-1.494h-131.2a21.685,21.685,0,0,0-21.661,21.661V388.69A21.685,21.685,0,0,0,157.917,410.351Z" transform="translate(-136.256 -356.573)" fill="#ffcd30"/>
      </g>
      <g id="Group_423" data-name="Group 423" transform="translate(172.042 9.46)">
        <path id="Path_556" data-name="Path 556" d="M140.881,361.417H282.046a.747.747,0,0,0,0-1.494H140.881a.747.747,0,0,0,0,1.494Z" transform="translate(-140.136 -359.923)" fill="#ffcd30"/>
      </g>
      <g id="Group_424" data-name="Group 424" transform="translate(172.042 18.425)">
        <path id="Path_557" data-name="Path 557" d="M140.881,364.589H282.046a.746.746,0,0,0,0-1.491H140.881a.746.746,0,0,0,0,1.491Z" transform="translate(-140.136 -363.098)" fill="#ffcd30"/>
      </g>
      <g id="Group_425" data-name="Group 425" transform="translate(172.042 27.387)">
        <path id="Path_558" data-name="Path 558" d="M140.881,367.766H282.046a.747.747,0,0,0,0-1.494H140.881a.747.747,0,0,0,0,1.494Z" transform="translate(-140.136 -366.272)" fill="#ffcd30"/>
      </g>
      <g id="Group_426" data-name="Group 426" transform="translate(172.042 36.35)">
        <path id="Path_559" data-name="Path 559" d="M140.881,370.94H282.046a.747.747,0,0,0,0-1.494H140.881a.747.747,0,0,0,0,1.494Z" transform="translate(-140.136 -369.446)" fill="#ffcd30"/>
      </g>
      <g id="Group_427" data-name="Group 427" transform="translate(172.042 45.313)">
        <path id="Path_560" data-name="Path 560" d="M140.881,374.114H282.046a.747.747,0,0,0,0-1.494H140.881a.747.747,0,0,0,0,1.494Z" transform="translate(-140.136 -372.62)" fill="#ffcd30"/>
      </g>
    </g>
    <g id="Group_435" data-name="Group 435" transform="translate(501.788 693.305)">
      <g id="Group_433" data-name="Group 433" transform="translate(65.65)">
        <path id="Path_561" data-name="Path 561" d="M221.2,306.292c-15.7,13.19-47.944,53.665-64.4,64.785-2.363,1.6-25.764,8.135-38.922,5.828-7.661-1.344-13.585-4.552-16.044-5.142-10.6-2.544-25.462,7.325-20.935,10.25a38.67,38.67,0,0,0,20.272,7.943c25.984,2.064,68.221,2.561,73.423.624,28.251-10.521,47.317-44.282,47.317-44.282Z" transform="translate(-56.252 -216.974)" fill="#f6a087"/>
        <path id="Path_562" data-name="Path 562" d="M156.748,301.7c-10.36,5.712-42.085,43.627-42.074,45.386s22.564,20.184,31.462,20.184c2.674,0,9.081-11.1,9.081-11.1Z" transform="translate(6.867 -225.344)" fill="#4079e2"/>
        <g id="Group_429" data-name="Group 429" transform="translate(175.561)">
          <path id="Path_563" data-name="Path 563" d="M191.288,296.853c0,23.824-18.044,33.154-22.005,33.086-3.4-.059-8.731-12.605-16.931-20.452-9.965-9.539-18.733-10.2-18.544-12.518.483-5.873,11.662-24.086,33.176-22.166C183.209,276.251,191.288,291.9,191.288,296.853Z" transform="translate(-133.805 -274.661)" fill="#232850"/>
          <path id="Path_564" data-name="Path 564" d="M145.36,304.6c-2.132,9.652-4.927,11.586-7.37,20.639-8.92,11.6,23.409,16.406,28.822,3.287-1.3-5.441-.415-31.694,5.662-40.871C175.58,282.971,145.36,304.6,145.36,304.6Z" transform="translate(-128.994 -252.17)" fill="#f6a087"/>
          <path id="Path_565" data-name="Path 565" d="M141.587,281.912c-9.612,19.187-6.441,41.139,2.064,42.653,9.426,1.677,22.957-11.128,26.521-22.392,1.6.98,8.37-7.878,6.478-10.657-1.474-2.166-5.82,4.721-6.975,4.357C156.607,297.253,141.13,284.244,141.587,281.912Z" transform="translate(-130.374 -261.437)" fill="#f5b58f"/>
        </g>
        <g id="Group_430" data-name="Group 430" transform="translate(0 179.637)">
          <path id="Path_566" data-name="Path 566" d="M239.683,349.141c.559,10.168-35.74,35.093-44.96,38.468-32.326,11.84-77.687,2.993-81.784,4.812.11.025,6.61,19.309,4.645,29.61-5.026,26.36-20.314,67.77-21.294,68.735-.892.875-14.226,2.533-16.4.195-.8-.858-4.4-102.146,1.381-117.538,7.508-20,116.106-35.144,116.106-35.144S239.076,338.1,239.683,349.141Z" transform="translate(-59.917 -338.278)" fill="url(#radial-gradient-2)"/>
          <path id="Path_567" data-name="Path 567" d="M91.633,396.537c-1.717,1.737-22.745,16.926-19.7,20.817,4.055,5.184,35.373-4.992,36.107-6.907,1.994-5.215-1.434-13.04-3.634-12.749C101.228,398.121,91.633,396.537,91.633,396.537Z" transform="translate(-71.632 -232.029)" fill="#033b5e"/>
          <path id="Path_568" data-name="Path 568" d="M94.577,391.768a1.008,1.008,0,0,1,.875,1.259c-.675,2.618-2.914,7.635-2.428,14.8.071,1.062-9.683,3.747-14.028,3.6-1.914-.065-.923-2.426-.712-2.753,3.3-5.108,3.021-9.485,3.027-15.83C81.314,391.407,91.257,391.43,94.577,391.768Z" transform="translate(-60.31 -241.074)" fill="#f5b58f"/>
        </g>
        <path id="Path_569" data-name="Path 569" d="M228.276,356.172c.556,10.168-4.021,25.448-13.241,28.825-32.326,11.837-77.687,2.993-81.784,4.812.11.025,6.61,19.309,4.645,29.61-5.026,26.36-20.314,67.767-21.294,68.733-.892.878-12.964,2.8-15.017-2.123-.449-1.079-5.777-99.825,0-115.217,7.508-20,85.884-29.028,85.884-29.028S227.668,345.134,228.276,356.172Z" transform="translate(-21.873 -152.25)" fill="#033b5e"/>
        <path id="Path_570" data-name="Path 570" d="M134.977,345.679c4.851,29.045-18.817,56.639-16.623,61.425s19.193,5.7,28.116,14.13c11.162,10.547,41.935,15.946,46.617,10.154,2.855-3.532,41.625-85.122,25.4-110.191-6.571-10.157-13.486-11.583-18.422-17.372-2.369,3.643-34.76,9.976-28.822-3.287-5.938,1.3-20,2.126-21.743,3.849C146.944,306.926,133.252,335.33,134.977,345.679Z" transform="translate(13.315 -227.466)" fill="#4079e2"/>
        <path id="Path_571" data-name="Path 571" d="M105.307,341.519h-23.5c-4.778,0-1.327-6.283,6.576-9.076,7.48-2.646,20.6-.647,20.6,5.4A3.671,3.671,0,0,1,105.307,341.519Z" transform="translate(-57.06 -171.369)" fill="#232850"/>
        <path id="Path_572" data-name="Path 572" d="M92.261,330.9c-8.545,3.487-9.242,5.676-9.242,6.238s4.185.486,5.927,0a19.221,19.221,0,0,1,5.06-1.18c1.742,0,5.105,6.291,10.685,5.393,3.117-.5.3-8.533.3-8.533Z" transform="translate(-50.864 -172.098)" fill="#f6a087"/>
        <path id="Path_573" data-name="Path 573" d="M209.658,318.442l-28.924,31.812-46.357-1.24s-17.259-12.537-23.273-13.308c-3.86-.5-15.635,8.146-16.29,13.785-.28,2.414,9.937-2.971,11.682-.771.672.85-7.494,6.06-5.729,7.175.952.6,8.5-2.4,10.18-1.923,5.831,1.655,10.623,6.91,18.106,4.092,2.725-1.025,26.879,14.906,53.383,17.979,17.022,1.971,49.91-32.826,56.274-40.766C232.287,334.9,209.658,318.442,209.658,318.442Z" transform="translate(-29.364 -194.816)" fill="#f5b58f"/>
        <g id="Group_431" data-name="Group 431" transform="translate(212.652 111.274)">
          <path id="Path_574" data-name="Path 574" d="M147.666,341.575a.723.723,0,0,1-.483-1.265c3.388-3.03,13.7-12.258,16.284-25.656a.725.725,0,0,1,1.423.277c-2.68,13.876-13.266,23.347-16.742,26.461A.717.717,0,0,1,147.666,341.575Z" transform="translate(-146.94 -314.067)" fill="#1657ab"/>
        </g>
        <g id="Group_432" data-name="Group 432" transform="translate(181.866 104.707)">
          <path id="Path_575" data-name="Path 575" d="M136.762,326.324a.724.724,0,0,1-.568-1.175c.977-1.231,1.96-2.5,2.908-3.716,2.445-3.154,4.978-6.416,7.689-9.451a.725.725,0,0,1,1.081.966c-2.68,3-5.2,6.238-7.627,9.372-.952,1.225-1.934,2.493-2.917,3.73A.724.724,0,0,1,136.762,326.324Z" transform="translate(-136.038 -311.742)" fill="#1657ab"/>
        </g>
      </g>
      <g id="Group_434" data-name="Group 434" transform="translate(124.006 189.532)">
        <path id="Path_576" data-name="Path 576" d="M228.276,356.172c.556,10.168-4.021,25.448-13.241,28.825-32.326,11.837-77.687,2.993-81.784,4.812.11.025,6.61,19.309,4.645,29.61-5.026,26.36-20.314,67.767-21.294,68.733-.892.878-12.964,2.8-15.017-2.123-.449-1.079-5.777-99.825,0-115.217,7.508-20,85.884-29.028,85.884-29.028S227.668,345.134,228.276,356.172Z" transform="translate(-80.229 -341.782)" fill="#033b5e"/>
        <path id="Path_577" data-name="Path 577" d="M112.3,397.875c-1.717,1.737-22.742,16.925-19.7,20.814,4.055,5.187,35.373-4.992,36.107-6.907,1.994-5.215-1.434-13.037-3.634-12.746C121.894,399.456,112.3,397.875,112.3,397.875Z" transform="translate(-92.298 -239.483)" fill="#033b5e"/>
        <path id="Path_578" data-name="Path 578" d="M115.708,394.356a.641.641,0,0,1,.426.771c-.551,2.171-3.151,8.067-2.448,14.627.113,1.059-9.683,3.747-14.028,3.6-1.914-.062-.906-2.411-.712-2.75,3.476-6.085,3.662-11.335,3.874-17.674C102.857,391.866,113.229,393.574,115.708,394.356Z" transform="translate(-80.973 -249.12)" fill="#f5b58f"/>
      </g>
      <g id="computer" transform="translate(0 103.514)">
        <path id="Path_579" data-name="Path 579" d="M157.569,384.122H80.133L62.85,312.8l6.111-1.481,16.118,66.515h72.49Z" transform="translate(-21.997 -311.32)" fill="#70a5cf"/>
        <path id="Path_580" data-name="Path 580" d="M89.235,311.844H48.382l17.283,71.322h40.853Z" transform="translate(-48.382 -310.363)" fill="#347bb3"/>
        <path id="Path_581" data-name="Path 581" d="M54.493,311.32H95.347L89.235,312.8H48.382Z" transform="translate(-48.382 -311.32)" fill="#cadff0"/>
      </g>
    </g>
    <g id="character2" transform="translate(798 711.324)">
      <path id="Path_582" data-name="Path 582" d="M271.065,453.457c-1.576-10.578-15.2-55.393-60.789-112.735l-39.3,33.69c20.6,50.2,16.2,7.429,28.119,29.13,19.611,35.706,42.02,62.187,41.853,66.8-.4,11.182-4.442,25.905-.265,38.281,4.51,13.368,33.772,58.629,37.988,68.354s13.591-.477,11.49-2.942C276.619,558.119,273.007,466.528,271.065,453.457Z" transform="translate(-121.007 -172.202)" fill="url(#radial-gradient-3)"/>
      <path id="Path_583" data-name="Path 583" d="M218.436,422.782c7.042-.452,26.907-1.55,27.068.429.164,2.008-28.929,16.6-33.569,15.579s-1.866-5.413-2.567-9.44C210.58,431.473,218.552,429.251,218.436,422.782Z" transform="translate(-51.351 -23.848)" fill="#ff7e33"/>
      <path id="Path_584" data-name="Path 584" d="M239.835,291.449c-11.292-9.547-24.99-7.09-30.341-5.213-2.454.861-19.379,7.689-25.5,18.405-5.656,9.908-34.173,59.516-20.947,80.976,2.55,4.14,10.29,12.924,23.008,9.985,4.007-.926,25.521-35.5,28.006-33.125,7.415,7.1,9.242,28.565,18.233,20.5,10.261-9.2,5.9-16.957,7.119-19.631,1.446-3.174,10.682-1.96,12.422-10.086,2.812-13.133-15.243-19.264-14.054-28.844C238.66,317.348,253.414,302.927,239.835,291.449Z" transform="translate(-141.782 -274.75)" fill="#232850"/>
      <path id="Path_585" data-name="Path 585" d="M165.751,384.941c-3.244,11.656,4.459,23.375,15.742,28.153,8.237,3.487,44.084,54.73,44.259,58.562.573,12.5-9.344,16.084-9.344,37.8,0,19.427,34.828,69.952,37.2,79.83s16.03,6.15,13.994,3.194C254.182,573,252.7,493.745,255.85,479.494c4.227-19.134-37.556-111.207-49.322-141.108C206.528,338.386,177.167,343.926,165.751,384.941Z" transform="translate(-131.907 -176.463)" fill="#033b5e"/>
      <path id="Path_586" data-name="Path 586" d="M226.73,367.14c-1.6-1.626-8.612,3.05-10.129,1.463-8.708-9.107-14.938-45.256-17.7-50.15-2.084-3.7-6.65-7.633-10.753-6.545s-9.092,6.873-6.432,16.928c3.363,12.7,19.526,47.159,26.984,51.5C219.876,386.83,234.916,371.531,226.73,367.14Z" transform="translate(-102.783 -225.087)" fill="#f6a087"/>
      <path id="Path_587" data-name="Path 587" d="M174.5,315.812c-17.917,14.505,12.283,49.028,10.767,72.257-1.079,16.541-19.727,37.779-18.546,40.752s55.885,12.7,69.871,2.745c4.334-3.086-18.7-46.5-13.37-71.94,1.3-6.2,5.563-8.694,6.43-15.692.658-5.323-5.5-30.787-18.442-36.336C194.47,300.42,176.31,314.346,174.5,315.812Z" transform="translate(-128.867 -236.339)" fill="#ff7e33"/>
      <path id="Path_588" data-name="Path 588" d="M192.812,300.057c-2.09,16.767,3.905,22.858,5.3,26.5s-23.4,6.26-24.8,1.581,3.885-23.575,5.789-29.74S192.812,300.057,192.812,300.057Z" transform="translate(-117.174 -253.712)" fill="#f5b58f"/>
      <path id="Path_589" data-name="Path 589" d="M209.561,292.415c5.388,18.614-2.976,36.358-8.155,37.6s-25.055-7.491-26.732-26.924C173.573,290.314,205.633,278.841,209.561,292.415Z" transform="translate(-114.321 -271.453)" fill="#f5b58f"/>
      <path id="Path_590" data-name="Path 590" d="M168.645,304.936c8.912-11.8,31.722-6.026,35.949-7.144,8.285-2.186,7.045-18.854,28.782-16.527,10.058,1.076,16.889,9.522,18.3,18.93,1.062,7.079-20.853-3.092-26.7,7.5-5.512,9.99,2.8,35.517-4.911,56.085-1.708,4.552-6.029,10.524-13.548,9.211-5.4-.943-8.163-5.314-12.334,2.016-5.08,8.923-2.265,20.6-14.311,19.73-8.42-.607-7.63-13.178-9.4-15.522-3.558-4.7-15.692-7.189-16.965-15.435-2.409-15.6,15.627-17.225,15.669-26.879C169.215,327.788,157.615,319.535,168.645,304.936Z" transform="translate(-153.283 -281.042)" fill="#232850"/>
      <path id="Path_591" data-name="Path 591" d="M241.612,385.069c.6.017,4.484-6.331-.892-6.133-10.507.384-26.286-2.787-38.29-2.812-6.715-.014-14.356,1.206-15.141.5-4.507-4.08,1.24-40.278-3.561-57.376-1.629-5.8-9.62-7.765-12.622-4.764s-3.869,8.937-4.185,19.334c-.61,19.876,4.049,56.023,9.513,57.3,5.557,1.3,12.261,3.917,25.134,2.1C218.74,390.807,238.876,385,241.612,385.069Z" transform="translate(-128.506 -222.601)" fill="#f5b58f"/>
      <path id="Path_592" data-name="Path 592" d="M207.543,425.281c6.54,2.053,29.926,6.879,28.853,8.446-2.843,4.154-32.871,9.434-38.459,5.67-3.832-2.584-1.833-7.045-1.036-10.99C198.31,431.123,205.349,431.256,207.543,425.281Z" transform="translate(-75.987 -17.989)" fill="#ff7e33"/>
      <path id="Path_593" data-name="Path 593" d="M199.335,334.206c1.248-2.363,4.188-5.557,5.461-5.224s1.276,2.488.777,3.321-1.217,1.141-.858,1.9,2.838,1.756,2.595,3.253-.294,7.342-2.595,7.813-6.362-.641-6.7-1.5c-.46-1.161.568-5.5,1.245-5.981.873-.621,2.267-1.372,2.118-1.849-.1-.333-1.183.147-1.824-.443A.987.987,0,0,1,199.335,334.206Z" transform="translate(-71.919 -193.656)" fill="#f5b58f"/>
      <path id="Path_594" data-name="Path 594" d="M210.683,359.948l-13.1,4.284a2.635,2.635,0,0,1-3.453-2.5V329.383a2.633,2.633,0,0,1,2.1-2.578l13.407-2.784a2.637,2.637,0,0,1,3.171,2.606l-.3,30.844A2.633,2.633,0,0,1,210.683,359.948Z" transform="translate(-78.797 -202.762)" fill="#1657ab"/>
      <path id="Path_595" data-name="Path 595" d="M193.252,342.8c1.951-.559,2.369-5.249,4.467-6.088.709-.282,5.134.153,6.15-.762s1.463-2.883,2.084-2.745c1.406.313.587,4.151-.621,5.286s-4.055.633-4.055,1.883,4.829,3.507,6.2,3.2,6.8-3.507,8.965-3.507-5,10.27-7.593,11.346c-6.881,2.855-15.262-4.142-16.587-4.007S192.721,342.95,193.252,342.8Z" transform="translate(-83.066 -185.929)" fill="#f5b58f"/>
    </g>
  </g>
</svg>
